<svg id="Layer_1" data-name="Layer 1" xmlns="http://www.w3.org/2000/svg" viewBox="0 0 460 455"><defs><style>.cls-1{fill:#9b6f43}.cls-2{fill:#040303}.cls-3{fill:#856440}.cls-4{fill:#020202}.cls-5{fill:#fcfcfc}.cls-6{fill:#fbfbfb}.cls-7{fill:#fafafa}.cls-8{fill:#fafbfb}.cls-9{fill:#f9f9f9}.cls-10{fill:#896640}.cls-11{fill:#8a6741}.cls-12{fill:#f6f6f6}.cls-13{fill:#979a9b}.cls-14{fill:#050404}.cls-15{fill:#0e0e0e}.cls-16{fill:#070607}.cls-17{fill:#080606}.cls-18{fill:#030303}.cls-19{fill:#0b0907}.cls-20{fill:#040202}</style></defs><title>Artboard 1</title><path class="cls-1" d="M.49 231a11.63 11.63 0 0 1 .42-1.81Q5 218.87 9.09 208.58c2.54-6.37 5.12-12.73 7.66-19.1 3-7.62 6-15.26 9.05-22.88 2.12-5.34 4.27-10.66 6.38-16 3.09-7.83 6.14-15.69 9.25-23.52 2-5.06 4.13-10.07 6.14-15.13 2.15-5.41 4.21-10.85 6.35-16.26 2-5.13 4.13-10.23 6.18-15.35 1.41-3.53 2.77-7.08 4.16-10.62.68-1.73 1.38-3.45 2-5.11a27.36 27.36 0 0 1 5.41-2.4c8-3.15 16-6.25 24-9.39 7.28-2.87 14.56-5.77 21.84-8.65L130 39.25c4.65-1.82 9.32-3.6 14-5.44 4.16-1.65 8.3-3.36 12.46-5 2.91-1.15 5.85-2.24 8.76-3.38q8.33-3.26 16.66-6.55l12.08-4.73 16.24-6.41 12.29-4.81c1.94-.76 3.88-1.55 5.82-2.31.62-.24 1.26-.43 1.74-.6.4.07.63.09.84.14a7 7 0 0 1 .86.26l160.4 63.36c.41.16.79.41 1.35.69.51 1.19 1.1 2.46 1.63 3.77q5.07 12.67 10.11 25.35c2.12 5.34 4.17 10.7 6.29 16s4.18 10.38 6.25 15.57 4.09 10.41 6.16 15.6 4.15 10.38 6.21 15.58c2 5 3.91 10 5.9 15 2.29 5.75 4.62 11.48 6.91 17.22 1.5 3.74 3 7.49 4.46 11.23 1.27 3.18 2.59 6.35 3.85 9.54q4 10.19 8 20.41c.08.21.13.43.26.88-.46 1.29-.93 2.77-1.52 4.22q-3.15 7.77-6.36 15.52c-1.68 4.07-3.41 8.11-5.09 12.18-1.52 3.65-3 7.32-4.51 11-1.39 3.38-2.79 6.75-4.18 10.12q-2.34 5.69-4.68 11.39l-5 12.2-5.79 14.07-4.18 10.14c-1.58 3.86-3.14 7.74-4.73 11.59-1.68 4.07-3.39 8.12-5.07 12.19-1.59 3.86-3.14 7.73-4.73 11.59s-3.34 8-5 12-3.32 8.14-5.07 12.44c-6.57 2.77-13.45 5.21-20.21 8s-13.64 5.26-20.45 7.91-13.59 5.37-20.4 8-13.62 5.31-20.43 7.95-13.64 5.25-20.45 7.9-13.61 5.33-20.41 8-13.6 5.34-20.41 8-13.63 5.28-20.65 8l-163.28-63.5a5.52 5.52 0 0 1-1.62-2.71c-2.16-5.24-4.24-10.51-6.37-15.76-1.57-3.87-3.2-7.71-4.79-11.58-1.73-4.21-3.42-8.43-5.15-12.63-1.57-3.79-3.19-7.56-4.75-11.36-1.65-4-3.23-8-4.87-12s-3.36-8-5-12-3.16-7.89-4.78-11.82-3.39-8.12-5.08-12.19c-1.52-3.65-3-7.3-4.54-11-1.27-3.1-2.51-6.22-3.77-9.33-1.65-4.08-3.3-8.16-5-12.23q-4.52-11-9.08-21.91c-.5-1.16-.99-2.42-1.64-4.01zm83.94 142.36c.85.28 1.48.53 2.12.7 3.68 1 7.35 1.94 11 2.88l33.12 8.41q9.53 2.43 19.06 4.89l24.65 6.34 32.48 8.31c7.08 1.81 14.17 3.59 21.23 5.45a7.64 7.64 0 0 0 4.17 0c4.16-1.17 8.34-2.28 12.53-3.38 2.88-.76 5.79-1.42 8.67-2.18q14.91-3.91 29.81-7.85c5.55-1.46 11.11-2.89 16.66-4.36q14.69-3.88 29.38-7.79 11.12-2.93 22.26-5.81c6.06-1.58 12.12-3.13 18.18-4.71 1-.26 2-.64 2.76-.9 14.3-23.92 28.51-47.61 42.63-71.35s28.35-47.4 42.47-71.24q-41-72.19-81.92-144.17c-.4-.71-.87-1.38-1.3-2-5.25-1.48-10.4-2.94-15.57-4.38-5.67-1.58-11.35-3.12-17-4.71-7.18-2-14.35-4.06-21.53-6.08-6-1.69-12.06-3.34-18.08-5-5.53-1.56-11-3.19-16.57-4.75-4.8-1.35-9.63-2.61-14.43-4-6.82-1.92-13.62-3.92-20.44-5.83-6.45-1.81-12.93-3.54-19.38-5.33a4.17 4.17 0 0 0-2.4 0c-2.72.79-5.46 1.49-8.19 2.25-7.53 2.11-15.06 4.26-22.6 6.36q-18.09 5-36.19 10l-14.66 4.07c-5 1.39-10 2.77-15.07 4.16-3.66 1-7.32 2.07-11 3.1q-6.78 1.9-13.57 3.78c-4.16 1.14-8.34 2.24-12.5 3.39-3.52 1-7 2-10.54 3a9.79 9.79 0 0 0-.67.92q-4.66 8.17-9.31 16.35l-10.62 18.7q-4.76 8.37-9.53 16.74-3.76 6.62-7.51 13.25c-2.51 4.41-5 8.82-7.54 13.23-2.95 5.2-5.87 10.41-8.83 15.6-3.07 5.39-6.17 10.75-9.23 16.14-2.58 4.55-5.1 9.13-7.68 13.67-3.8 6.69-7.64 13.35-11.46 20-.33.57-.56 1.2-.82 1.78z"/><path class="cls-2" d="M84.43 373.36L1.51 230.93c.27-.59.5-1.21.82-1.78 3.81-6.68 7.65-13.35 11.46-20 2.58-4.54 5.1-9.13 7.68-13.67 3.06-5.39 6.16-10.75 9.23-16.14 3-5.19 5.88-10.4 8.83-15.6 2.51-4.42 5-8.82 7.54-13.23s5-8.84 7.51-13.25q4.76-8.37 9.53-16.74l10.62-18.7q4.66-8.21 9.27-16.38a9.79 9.79 0 0 1 .67-.92c3.52-1 7-2 10.54-3 4.16-1.15 8.34-2.24 12.5-3.39q6.79-1.87 13.57-3.78c3.66-1 7.32-2.08 11-3.1 5-1.4 10-2.77 15.07-4.16L162 63.05q18.09-5 36.19-10c7.54-2.1 15.06-4.24 22.6-6.36 2.72-.76 5.47-1.46 8.19-2.25a4.17 4.17 0 0 1 2.4 0c6.46 1.8 12.93 3.52 19.38 5.33 6.82 1.91 13.62 3.91 20.44 5.83 4.8 1.35 9.63 2.62 14.43 4 5.53 1.56 11 3.18 16.57 4.75 6 1.7 12.06 3.35 18.08 5 7.18 2 14.35 4.07 21.53 6.08 5.67 1.59 11.35 3.13 17 4.71 5.16 1.44 10.32 2.9 15.57 4.38.43.67.9 1.34 1.3 2q40.89 72.07 81.92 144.17c-14.12 23.85-28.35 47.51-42.47 71.24s-28.34 47.43-42.63 71.35c-.79.26-1.76.64-2.76.9-6.06 1.58-12.12 3.13-18.18 4.71q-11.13 2.89-22.26 5.81-14.7 3.88-29.38 7.79c-5.55 1.47-11.11 2.9-16.66 4.36q-14.91 3.92-29.81 7.85c-2.88.76-5.79 1.42-8.67 2.18-4.18 1.1-8.36 2.2-12.53 3.38a7.64 7.64 0 0 1-4.17 0c-7.07-1.85-14.15-3.64-21.23-5.45l-32.48-8.31-24.65-6.34q-9.53-2.45-19.06-4.89l-33.12-8.41c-3.69-.94-7.36-1.91-11-2.88-.64-.09-1.26-.33-2.11-.62zm145.9-321.07c-7.13 2-14 3.8-20.9 5.74-5.73 1.61-11.52 3-17.19 4.87-3.18 1-6.46 1.79-9.69 2.67-5.46 1.48-10.92 2.95-16.37 4.46-5.1 1.41-10.18 2.88-15.27 4.3-3.23.9-6.46 1.79-9.69 2.68-4.73 1.3-9.48 2.57-14.2 3.9-5.23 1.47-10.44 3-15.68 4.48-7 2-14.07 3.84-21.27 5.8-.42.57-1 1.19-1.38 1.87-1.74 2.79-3.45 5.59-5.17 8.39q-3.69 6-7.39 12c-2.34 3.82-4.64 7.66-7 11.48-2.61 4.26-5.26 8.5-7.87 12.77q-5.56 9.07-11.1 18.16-4.68 7.63-9.38 15.25L28.62 191l-7.38 12-10.42 17q-2.75 4.49-5.49 9a3.05 3.05 0 0 0-.73 2.13 3.76 3.76 0 0 0 .24.55q3.08 4.94 6.17 9.87c2.47 3.91 5 7.8 7.43 11.72 4.79 7.66 9.53 15.34 14.34 23 5.52 8.79 11.1 17.53 16.62 26.32q10.25 16.3 20.45 32.64 9.33 14.89 18.69 29.77a19.8 19.8 0 0 0 1.56 1.95c1.37.33 2.53.6 3.69.9q15.13 3.88 30.26 7.77c7.51 1.92 15 3.79 22.53 5.7 7.14 1.82 14.26 3.69 21.4 5.52q13.52 3.46 27.06 6.9l20.13 5.16c4.54 1.17 9.09 2.33 13.63 3.52a5.19 5.19 0 0 0 2.86 0c1.79-.51 3.6-.92 5.4-1.4 6.62-1.75 13.24-3.53 19.87-5.27 5.9-1.55 11.81-3 17.71-4.6 6.2-1.63 12.37-3.34 18.57-5 9.79-2.55 19.6-5 29.4-7.59 5.63-1.47 11.23-3 16.86-4.52 9.14-2.39 18.29-4.73 27.63-7.15.52-.73 1.16-1.55 1.72-2.42 2.51-3.89 5-7.8 7.5-11.69q7.27-11.3 14.55-22.6Q398 319 405.13 307.9q6.66-10.36 13.34-20.71 7.75-12.06 15.49-24.12c1.57-2.45 3.21-4.85 4.79-7.3q6.24-9.69 12.45-19.41c1.16-1.82 2.29-3.66 3.27-5.23a3.15 3.15 0 0 0-.72-2.17l-7.49-12.22q-5.32-8.69-10.63-17.39c-3.63-5.92-7.29-11.82-10.92-17.73-2.54-4.13-5-8.29-7.58-12.43-4.77-7.76-9.57-15.49-14.33-23.26q-8.2-13.36-16.35-26.75-7.45-12.13-14.87-24.24c-.81-1.32-1.44-2.81-2.85-3.82z"/><path class="cls-3" d="M230.33 52.29l138.39 38.83c1.41 1 2 2.51 2.85 3.82q7.48 12.09 14.87 24.24 8.18 13.37 16.35 26.75c4.76 7.76 9.56 15.5 14.33 23.26 2.54 4.13 5 8.29 7.58 12.43 3.63 5.92 7.29 11.82 10.92 17.73s7.08 11.59 10.63 17.39l7.49 12.22a3.15 3.15 0 0 1 .72 2.17c-1 1.57-2.11 3.41-3.27 5.23q-6.21 9.71-12.45 19.41c-1.58 2.45-3.22 4.85-4.79 7.3q-7.76 12.05-15.49 24.12-6.66 10.36-13.34 20.71-7.12 11.1-14.27 22.24-7.27 11.3-14.55 22.6c-2.5 3.89-5 7.8-7.5 11.69-.56.87-1.2 1.69-1.72 2.42-9.34 2.41-18.49 4.76-27.63 7.15-5.63 1.47-11.23 3.05-16.86 4.52-9.79 2.55-19.6 5-29.4 7.59-6.2 1.62-12.38 3.33-18.57 5-5.9 1.56-11.81 3.05-17.71 4.6-6.63 1.74-13.25 3.52-19.87 5.27-1.8.48-3.61.89-5.4 1.4a5.19 5.19 0 0 1-2.86 0c-4.54-1.19-9.08-2.35-13.63-3.52L195 393.68l-27.06-6.9c-7.14-1.83-14.26-3.7-21.4-5.52-7.51-1.92-15-3.79-22.53-5.7q-15.14-3.87-30.26-7.77c-1.15-.3-2.31-.56-3.69-.9a19.8 19.8 0 0 1-1.56-1.95q-9.37-14.87-18.69-29.77-10.19-16.31-20.41-32.63c-5.52-8.78-11.1-17.53-16.62-26.32-4.8-7.65-9.55-15.33-14.34-23-2.45-3.92-5-7.81-7.43-11.72q-3.1-4.92-6.17-9.87a3.76 3.76 0 0 1-.24-.55 3.05 3.05 0 0 1 .73-2.08q2.73-4.5 5.49-9l10.42-17 7.38-12 12.19-19.85q4.69-7.63 9.38-15.25 5.56-9.07 11.1-18.16c2.61-4.26 5.26-8.5 7.87-12.77 2.34-3.82 4.64-7.66 7-11.48q3.68-6 7.39-12c1.72-2.8 3.43-5.6 5.17-8.39.43-.68 1-1.3 1.38-1.87 7.2-2 14.24-3.85 21.27-5.8 5.24-1.45 10.45-3 15.68-4.48 4.73-1.33 9.47-2.6 14.2-3.9 3.23-.89 6.46-1.77 9.69-2.68 5.09-1.43 10.18-2.89 15.27-4.3 5.45-1.51 10.91-3 16.37-4.46 3.23-.88 6.5-1.64 9.69-2.67 5.67-1.83 11.46-3.26 17.19-4.87 6.85-1.98 13.75-3.83 20.87-5.78zM6.64 230.95l42.06 67 42.1 67c.91.29 1.81.62 2.74.86 9.8 2.5 19.62 5 29.41 7.48 5.12 1.32 10.24 2.64 15.33 4 7.09 2 14.27 3.61 21.41 5.4 6.93 1.74 13.87 3.43 20.75 5.39 5.37 1.52 10.81 2.78 16.21 4.15q16.12 4.09 32.24 8.2a4.74 4.74 0 0 0 2.61 0c3.94-1.11 7.9-2.16 11.87-3.19 7.92-2.07 15.84-4.1 23.76-6.17 4.82-1.26 9.63-2.58 14.45-3.86 2.38-.63 4.76-1.22 7.14-1.83 4.68-1.21 9.36-2.4 14-3.66 6.89-1.86 13.84-3.5 20.7-5.5 3.43-1 6.91-1.85 10.37-2.74 9-2.32 18-4.62 27-6.95 1.8-.47 3.57-1 5.29-1.55 1.54-2.37 3-4.62 4.46-6.88L383 338.94q7-10.92 14-21.85c3.07-4.76 6.2-9.49 9.26-14.26q8-12.44 15.92-24.9c1.89-3 3.82-5.88 5.71-8.83 2.5-3.9 5-7.81 7.46-11.71q3.56-5.56 7.15-11.11c2.39-3.7 4.82-7.37 7.2-11.07 1-1.5 1.86-3 2.84-4.62l-28.14-45.91-28.2-46q-14.1-23-28.1-45.74c-1.34-.4-2.54-.79-3.75-1.13-6.24-1.73-12.49-3.42-18.72-5.17-5.38-1.51-10.74-3.13-16.12-4.64-8-2.25-16.07-4.43-24.1-6.67-5.6-1.57-11.18-3.21-16.78-4.78S277.55 67.54 272 66c-5.8-1.64-11.58-3.39-17.39-5-7.46-2.09-14.94-4.07-22.4-6.15a7.43 7.43 0 0 0-4.16 0c-8.17 2.3-16.35 4.55-24.53 6.82l-20.68 5.72c-8.47 2.36-16.93 4.74-25.4 7.09q-9.79 2.71-19.6 5.37c-4.38 1.2-8.78 2.35-13.15 3.58-3.8 1.07-7.57 2.28-11.37 3.33-6.38 1.77-12.79 3.45-19.18 5.19-1.07.29-2.11.69-3.15 1-.75 1.19-1.48 2.32-2.18 3.46q-5.35 8.8-10.73 17.59c-4.73 7.69-9.5 15.36-14.23 23.06q-6.63 10.78-13.21 21.58c-3.38 5.54-6.73 11.11-10.13 16.64q-6.73 11-13.51 21.93Q18.15 211.6 9.32 226a22.45 22.45 0 0 0-2.68 4.95z"/><path class="cls-4" d="M6.64 230.95A22.45 22.45 0 0 1 9.32 226q8.81-14.41 17.68-28.8 6.75-11 13.51-21.93c3.39-5.54 6.74-11.1 10.13-16.64q6.59-10.8 13.21-21.58c4.73-7.69 9.49-15.37 14.23-23.06q5.4-8.77 10.76-17.56c.7-1.14 1.43-2.27 2.18-3.46 1-.34 2.08-.74 3.15-1 6.39-1.74 12.79-3.42 19.18-5.19 3.81-1.05 7.57-2.26 11.37-3.33 4.37-1.23 8.77-2.38 13.15-3.58q9.8-2.68 19.6-5.37c8.47-2.35 16.93-4.73 25.4-7.09l20.68-5.72c8.18-2.27 16.36-4.52 24.53-6.82a7.43 7.43 0 0 1 4.16 0c7.46 2.08 14.94 4.06 22.4 6.15 5.81 1.62 11.58 3.38 17.39 5 5.51 1.56 11.05 3 16.57 4.56s11.18 3.21 16.78 4.78c8 2.24 16.08 4.42 24.1 6.67 5.38 1.51 10.74 3.13 16.12 4.64 6.23 1.75 12.48 3.44 18.72 5.17 1.22.34 2.42.73 3.75 1.13q14 22.84 28.1 45.74t28.2 46l28.13 45.91c-1 1.58-1.87 3.12-2.84 4.62-2.39 3.7-4.81 7.38-7.2 11.07s-4.78 7.4-7.15 11.11c-2.5 3.9-5 7.81-7.46 11.71-1.89 3-3.82 5.88-5.71 8.83q-8 12.45-15.92 24.9c-3.06 4.77-6.18 9.5-9.26 14.26q-7 10.91-14 21.85l-12.36 19.2c-1.45 2.26-2.92 4.5-4.46 6.88-1.72.5-3.49 1.08-5.29 1.55-9 2.33-18 4.63-27 6.95-3.46.89-6.94 1.74-10.37 2.74-6.86 2-13.81 3.63-20.7 5.5-4.67 1.26-9.35 2.45-14 3.66-2.38.62-4.77 1.2-7.14 1.83-4.82 1.28-9.63 2.6-14.45 3.86-7.92 2.07-15.84 4.1-23.76 6.17-4 1-7.92 2.09-11.87 3.19a4.74 4.74 0 0 1-2.61 0q-16.11-4.15-32.24-8.2c-5.41-1.37-10.85-2.63-16.21-4.15-6.88-2-13.82-3.65-20.75-5.39-7.14-1.79-14.32-3.45-21.41-5.4-5.1-1.4-10.22-2.73-15.33-4-9.8-2.52-19.61-5-29.41-7.48-.93-.24-1.84-.57-2.74-.86l-42.1-67zm330.29-44.54l-.49-.34h-.06c-.6-.77-1.53-.74-2.35-1l.09-.52h.06a.71.71 0 0 0 .92-.36.71.71 0 0 0 .9-.42.63.63 0 0 0 .84-.48l.5-.36a8.26 8.26 0 0 0 3.45-5.31 17.92 17.92 0 0 0 .46-3.77c.05-4.93 0-9.86 0-14.79a20.31 20.31 0 0 0-.85-5.74 10.88 10.88 0 0 0-7.24-7.63 34.11 34.11 0 0 0-10.34-1.68c-5.6-.14-11.2 0-16.81 0a8 8 0 0 0-1.28.21 8.3 8.3 0 0 0-.13 1v20.84a5.49 5.49 0 0 0 .19 1c1.48.38 2.92-.14 4.34.4V197.75c0 2.54.14 5-.12 7.55-1.49.33-2.94-.15-4.33.36 0 .44-.09.8-.09 1.17v22.19a8.63 8.63 0 0 0 .21 1.31c2.35.2 4.59.07 6.82.1s4.48 0 6.72 0a44.39 44.39 0 0 0 6.78-.19c.08-2.85.05-5.6 0-8.35s-.12-5.37-.17-8.06a66.42 66.42 0 0 0-.27-8.3c-.76 0-1.42 0-2.08-.1a11.45 11.45 0 0 1-1.25-.25v-12.45a3.41 3.41 0 0 1 .22-.83 31 31 0 0 1 3.19 0 3.59 3.59 0 0 1 3.51 3.2 21 21 0 0 1 .43 4.22c0 3.51-.24 7-.3 10.51s-.13 6.72 0 10.08a15.29 15.29 0 0 0 2.18 7.67 7.1 7.1 0 0 0 2.71 2.6 9.12 9.12 0 0 0 12.79-4.38 23.21 23.21 0 0 0 1.51-5.14 71.87 71.87 0 0 0 .87-13.16c0-3.13-.23-6.26-.37-9.39a7.36 7.36 0 0 0-.16-.92 13.08 13.08 0 0 0-4.77.07c0 1.4.06 2.74 0 4.07a6.6 6.6 0 0 1-1 3.92l-1.12.21a2.21 2.21 0 0 1-1.26-1.88c-.07-.59-.08-1.19-.09-1.79q-.08-4-.15-8.06a1 1 0 0 0 .14-.11 3.35 3.35 0 0 0-.2-.29c-.15-2.23-.43-4.43-1.91-6.25a.57.57 0 0 0-.71-.54zm11.62-45.73l-.28 2.25a1.66 1.66 0 0 0-.18 1.79l-.28 2a2.06 2.06 0 0 0-.19 2l-.26 2a2.11 2.11 0 0 0-.27 2.11l-.22 1.68a1 1 0 0 0-.14 1.35l-.25 2.17a1.91 1.91 0 0 0 0 1.7 1.93 1.93 0 0 0 .79-1.63l1-2.57a.91.91 0 0 0 .53-1.12l1.06-2.72h.16a1.87 1.87 0 0 0 0-.3c.49-1.17 1-2.33 1.45-3.52 1.13-2.92 2.28-5.84 3.34-8.79 1.31-3.65 2.52-7.34 3.8-11s2.66-7.45 4-11.18a3.19 3.19 0 0 0 .3-1.93 34.71 34.71 0 0 0-9.37-4c-.06 0-.15.09-.16.14q-1.22 6.25-2.42 12.5a.58.58 0 0 0-.12.89l-.1.8c-.25.14-.37.32-.17.6l-.39 2.46a1.23 1.23 0 0 0-.27 1.52l-.09.79a1.74 1.74 0 0 0-.33 1.9l-.15 1.67a2.52 2.52 0 0 0-.29 2.37l-.21 2.07a1.66 1.66 0 0 0-.29 2zm-237.62 89.41c1.73.3 18.14.32 20.1 0a1.82 1.82 0 0 0 .22-.6q-.13-11.31-.3-22.62c0-.43-.09-.86-.15-1.4l-3.15-.17a92.65 92.65 0 0 1 .05-13.55h2.39c2.69.14 4.07 1.41 4.48 4.09 0 .29.06.6.1.89a39.33 39.33 0 0 1 0 7.14c-.15 3.28-.24 6.57-.27 9.85 0 2.39 0 4.78.14 7.17a13.94 13.94 0 0 0 1.59 5.79 8.07 8.07 0 0 0 3.16 3.39c3.81 2.2 10.45 1.52 12.91-4.11a19.66 19.66 0 0 0 .79-2.09 28.92 28.92 0 0 0 1.34-8.15c.07-5.82 0-11.65-.06-17.48a5.56 5.56 0 0 0-.23-1.08 22.42 22.42 0 0 0-4.61-.12c0 .86-.06 1.59-.1 2.32-.09 1.41-.18 2.83-.3 4.24a2.06 2.06 0 0 1-1 1.69l-1.34-.07a3.74 3.74 0 0 1-.93-2.88c0-1.87.06-3.74 0-5.6a35.28 35.28 0 0 0-.7-6.67 5.56 5.56 0 0 0-4.54-4.65 12.15 12.15 0 0 1-1.27-.45c1-.42 1.65-.69 2.3-1a8.77 8.77 0 0 0 5-5.45 15.46 15.46 0 0 0 .76-4.62v-15a19.62 19.62 0 0 0-1.26-6.79 9.91 9.91 0 0 0-5.7-6 25 25 0 0 0-3.19-1 45 45 0 0 0-10.66-1.2c-4.78-.1-9.56 0-14.34 0a13.43 13.43 0 0 0-1.36.14 10.13 10.13 0 0 0-.15 1.18v20.62a7.54 7.54 0 0 0 .21 1.25c1.47.36 2.93-.15 4.24.36.24 2.21.22 35.89 0 37.86l-4.25.18c-.06.66-.16 1.23-.17 1.81-.21 12.52-.1 21.24.25 22.78zm176-50.6c2.25 0 4.19.07 6.12 0s4 .24 6.13-.22v-8.78-8.74-9c0-3 .14-5.79-.12-8.77a11.19 11.19 0 0 0-1.19-.14h-33.22a6.77 6.77 0 0 0-1.08.18 8 8 0 0 0-.13 1v21.07a4.69 4.69 0 0 0 .25 1l4.05.16a3.33 3.33 0 0 1 .22.76v36.54a3.36 3.36 0 0 1-.17.71c-1.38.24-2.81-.12-4.24.26a11.49 11.49 0 0 0-.12 1.16v22.42a6.62 6.62 0 0 0 .24 1.17h33.46c.64 0 1.36.22 2-.48V195.6a1.92 1.92 0 0 0-.21-.6 64 64 0 0 0-11.91.09c0 .55-.11 1.13-.11 1.72v7.17a12.75 12.75 0 0 1-.16 1.37c-2.21 0-4.28.06-6.34 0a3 3 0 0 1-.23-.74v-11.65a3.72 3.72 0 0 1 .3-.93h5.17a30.93 30.93 0 0 0 5.09-.14 55.44 55.44 0 0 0 0-9.55c-.55 0-1.14-.1-1.72-.1h-7.4a8.29 8.29 0 0 1-1.23-.18c-.23-1.57-.36-10.81-.2-13.75a5.31 5.31 0 0 1 .2-.87 11.62 11.62 0 0 1 3.16-.13c1.08 0 2.21-.25 3.41.34zm-52.74-35.34a3.86 3.86 0 0 0-.83-.24h-31.21a3.25 3.25 0 0 0-.73.2c-.06.49-.15 1-.16 1.5-.24 13-.11 27.72.29 29.69a42.72 42.72 0 0 0 5.28.07c1.76 0 3.54.27 5.41-.27v-2.07-5.38a8.05 8.05 0 0 1 .27-1.35h5.69a5.85 5.85 0 0 1 1.17.3c-3.38 6.61-6.76 13-10.09 19.42s-6.74 13-10.11 19.47v23.82a3.21 3.21 0 0 0 .19.77c2.22.34 21.07.46 32.36.22.43 0 .86-.08 1.28-.12a3 3 0 0 0 .23-.74v-34.75a3.34 3.34 0 0 0-.22-.75 42.76 42.76 0 0 0-5.32-.08c-1.83 0-3.69-.26-5.65.26V205.15a8.78 8.78 0 0 1-.17 1.23 27.58 27.58 0 0 1-8.23-.16c0-.07-.06-.16 0-.21l20.54-39.81zM193 187.09v-22.64c0-2.38-.22-4.77-.43-7.15a20.48 20.48 0 0 0-1.54-6.06 11.91 11.91 0 0 0-7.15-7 20.46 20.46 0 0 0-5.91-1.14 21.45 21.45 0 0 0-10.09 1.51 10.82 10.82 0 0 0-5.4 4.84 22.6 22.6 0 0 0-2.24 7 49.44 49.44 0 0 0-.52 8.26v44.61c0 1.42 0 2.84.08 4.26a30.59 30.59 0 0 0 1.7 9 11.39 11.39 0 0 0 6.88 7.22 22.56 22.56 0 0 0 15.38.22 11.44 11.44 0 0 0 6.31-5.1 19.18 19.18 0 0 0 2.48-7.84 67.71 67.71 0 0 0 .44-6.92c.01-7.67.01-15.37.01-23.07zm-101.66-7.26h6.29a36.22 36.22 0 0 0 6.28-.2c0-.77.07-1.43.07-2.09v-9.87-21.52c0-.71.25-1.5-.49-2.25h-5.7a35.58 35.58 0 0 0-5.68.15c-.48 1.25.08 2.48-.48 3.75-.4-.41-.7-.71-1-1a10.39 10.39 0 0 0-10.52-3.42 9 9 0 0 0-5.84 3.82 16.27 16.27 0 0 0-2.39 6.23 55.28 55.28 0 0 0-.95 10.25v46.64a64.55 64.55 0 0 0 .56 7.36 20.86 20.86 0 0 0 1.7 6 11.49 11.49 0 0 0 5.06 5.51 18.52 18.52 0 0 0 7.74 2 19.07 19.07 0 0 0 9.22-1.38 13.62 13.62 0 0 0 7.5-8.47 31.18 31.18 0 0 0 1.55-10.14c.06-6.5 0-13 0-19.51a8.16 8.16 0 0 0-.19-1.25 4.44 4.44 0 0 0-.76-.15H92.1a3.41 3.41 0 0 0-.9.29v2.51c0 2.61 0 5.23-.13 7.84a10.78 10.78 0 0 1-.53 2.85 3.21 3.21 0 0 1-3.09 2.48 3.46 3.46 0 0 1-3.58-2.49 9.66 9.66 0 0 1-.51-2.17 32.63 32.63 0 0 1-.22-3.58v-23.54c0-1.19.14-2.38.22-3.57a7.46 7.46 0 0 1 1.37-3.74l2.07-.79c2.7 0 3.64 1.43 4 3.37a12.22 12.22 0 0 1 .25 2c.06 1.87.07 3.73.11 5.6.1.72.14 1.45.18 2.48zm275.79 50.26l.29-2.54c.5.44.83.71 1.13 1a9.55 9.55 0 0 0 5.16 2.5 13.37 13.37 0 0 0 4.68 0 10.14 10.14 0 0 0 8.41-6.84 20.88 20.88 0 0 0 1.3-7.46v-17.71a25 25 0 0 0-1-6.85 12.93 12.93 0 0 0-3.34-5.74 29.63 29.63 0 0 0-5-4.15c-2.08-1.32-4.16-2.63-6.22-4a13.08 13.08 0 0 1-3.92-3.62 4 4 0 0 1-.81-1.8 23.21 23.21 0 0 1 .22-4.22 2.61 2.61 0 0 1 1.37-1.95 3.41 3.41 0 0 1 3.61.37 6.14 6.14 0 0 1 .87 3.42v2.91a10.68 10.68 0 0 0 .25 1.41h7a11.41 11.41 0 0 0 3.48-.2 4.33 4.33 0 0 0 .16-.77V144.5a.47.47 0 0 0-.05-.21 2.8 2.8 0 0 0-.31-.33 40.41 40.41 0 0 0-4.5 0 20 20 0 0 0-4.95.22v2.44c-.22.06-.31.11-.36.09a1.17 1.17 0 0 1-.37-.24 11 11 0 0 0-7.62-3.31c-4-.24-7.37.92-9.79 4.28a12 12 0 0 0-1.84 3.81 22.13 22.13 0 0 0-.84 6v11.88c0 2 .18 4 .38 6a14.14 14.14 0 0 0 5.48 10.09c1.94 1.52 3.93 3 5.94 4.39 1.33 1 2.79 1.75 4.07 2.76 3.66 2.88 4.72 6.73 3.91 11.2a4 4 0 0 1-1.22 2.43 3.55 3.55 0 0 1-3.86-.07 4.48 4.48 0 0 1-.94-3v-4.26a10.57 10.57 0 0 0-.15-1.22 70.53 70.53 0 0 0-11.92 0c-.33 1.48-.46 15.86-.26 30.86 0 .58.1 1.15.14 1.7a69.92 69.92 0 0 0 11.42.08zm-124.89-62.77c.06.47.14.82.15 1.17.25 8.47.1 34.66-.21 36.78-1.33.34-2.77-.12-4.19.31a9.81 9.81 0 0 0-.14 1.15v22.42a4.86 4.86 0 0 0 .23 1 9.36 9.36 0 0 0 1 .11h18.61a10 10 0 0 0 1.33-.19c0-.58.1-1 .1-1.45v-4.26-17c0-.64.21-1.36-.56-2h-1.87c-.66 0-1.48.21-2.1-.22-.28-3.84-.18-36 .12-37.77 1.36-.46 2.91.18 4.42-.47v-22a3.17 3.17 0 0 0-.19-.78 2 2 0 0 0-.49-.21h-1.34l-18.6.06a.46.46 0 0 0-.21.06 2.5 2.5 0 0 0-.3.27 6.78 6.78 0 0 0-.11.93v20.85a5.31 5.31 0 0 0 .24 1.09zm-9.13 88.26c-2 2.24-4 4.47-6 6.67s-3.85 4.47-6.18 6.72a16.39 16.39 0 0 1-.16-3.34v-19.28-3.14a12.7 12.7 0 0 0-.14-3.09 3 3 0 0 0-.7-.2h-12.11a2.76 2.76 0 0 0-.78.24c-.22 2.75-.16 55.36.07 57.07a21.78 21.78 0 0 0 4.43.16h4.71a16.73 16.73 0 0 0 4.54-.24v-13.07c.89-.86 1.74-1.69 2.62-2.5a7.76 7.76 0 0 1 .93-.63l10 16.44h15.76a3 3 0 0 0 .77-.29l-16.97-25.59a6.35 6.35 0 0 1 .46-.61c2.66-2.73 5.33-5.45 8-8.18 2-2 3.93-4.1 5.9-6.14.28-.29.47-.58.11-1zm-126.72 41.57v-26.4-9c0-3-.14-5.78.12-8.79.86 0 1.59-.07 2.32-.07h12.78a16.32 16.32 0 0 0 1.67-.17 77.81 77.81 0 0 0-.09-12.72c-.32 0-.68-.1-1-.11H76.68a4.24 4.24 0 0 0-2.37.23 95.13 95.13 0 0 0 .1 12.67 31.68 31.68 0 0 0 4.16.09h8.26a16.07 16.07 0 0 1 4.18.19 5.43 5.43 0 0 1 .22 2.5v39.23a6.42 6.42 0 0 0 .15 2.35 118.44 118.44 0 0 0 15.01 0zm43.46-41.52V277.28a18.81 18.81 0 0 1-.5 4.21 7.18 7.18 0 0 1-7.76 5.7c-3.11-.26-5-1.68-5.54-4.85a23.4 23.4 0 0 1-.25-3.57v-20.85a3.75 3.75 0 0 0-.24-2.17 98.31 98.31 0 0 0-13.38 0 3.54 3.54 0 0 0-.26 2.17v22c0 1.49.09 3 .18 4.48a20.45 20.45 0 0 0 1.42 6.54 11.11 11.11 0 0 0 5.58 6.06 18 18 0 0 0 11.83 1.18 15.1 15.1 0 0 0 8.14-4.87 5.21 5.21 0 0 1 .88-.64c.46 1.61-.13 3.14.47 4.69h8.73c1.42 0 3 .25 4.53-.28v-2-8.52-28.47a4.06 4.06 0 0 0-.31-2.46zm146.88 24.28a5.42 5.42 0 0 0 .28-.71 3.72 3.72 0 0 0 .12-.89 32 32 0 0 0-1.55-9.91c-2-5.71-5.54-10.1-11.27-12.31a23.64 23.64 0 0 0-20.16 1 20.64 20.64 0 0 0-10.7 13.17 24.29 24.29 0 0 0-.29 11.75c1.73 8.22 6.76 13.41 14.83 15.69a29 29 0 0 0 8.65.92 24 24 0 0 0 11-2.78 16.88 16.88 0 0 0 8.29-9.59 8 8 0 0 0 .22-1.46 100.64 100.64 0 0 0-12.71 0 8.07 8.07 0 0 1-5 4 11 11 0 0 1-6.6-.33c-2.62-1-5.62-4.63-4.93-8.54h19.86c3.29 0 6.63.15 9.97-.01zm24.27 2.43c-1.41-4.9-2.66-9.27-3.94-13.64s-2.43-8.76-3.91-13.08c-.64 0-1.15-.08-1.67-.08l-12.32.08a.34.34 0 0 0-.21.07l-.16.35c.15.5.31 1.14.54 1.76q5.9 15.84 11.79 31.68a38.73 38.73 0 0 1 1.45 4.71c.71 3-.66 5.07-3.67 5.8a22.54 22.54 0 0 1-4.23.26c-.64 0-1.35-.22-2 .41v7.1a14.11 14.11 0 0 0 .18 3.57 7.38 7.38 0 0 0 .94.13c2.24 0 4.48.07 6.72 0a48.69 48.69 0 0 0 5.79-.49 11.32 11.32 0 0 0 8.41-5.7 14.09 14.09 0 0 0 1-2q2-5.23 3.93-10.48c2.18-6 4.33-11.92 6.49-17.88s4.23-11.65 6.33-17.48c.19-.54.3-1.11.45-1.68a95.33 95.33 0 0 0-14.07.09c-.82 2.88-1.64 5.82-2.49 8.76s-1.66 5.74-2.55 8.58-1.45 5.89-2.8 9.16zm23.64 1.54a12.72 12.72 0 0 0 3.42 9.11 15.65 15.65 0 0 0 7 4.27 33.8 33.8 0 0 0 11.06 1.38 29.4 29.4 0 0 0 8.8-1.53 17.24 17.24 0 0 0 5.49-3A12.44 12.44 0 0 0 385 282.6c-.45-4.29-3-7.2-6.83-9.06a27 27 0 0 0-6.7-1.77c-2.27-.46-4.56-.83-6.8-1.4a16.52 16.52 0 0 1-3.95-1.54c-1.64-.92-1.83-1.79-1.16-3.91A5.58 5.58 0 0 1 361 264a11.28 11.28 0 0 1 7.47.09 3.54 3.54 0 0 1 2.2 2.39l.48 1.63h8.25c1.31 0 2.81.25 4.24-.28-.23-5.22-2.56-9-7.27-11.23a21.6 21.6 0 0 0-6.22-1.78 35.94 35.94 0 0 0-14.44.67 17.56 17.56 0 0 0-5.5 2.43 10.28 10.28 0 0 0-4.81 7.48 16.92 16.92 0 0 0 0 4.24 9.51 9.51 0 0 0 4.47 6.92 21.38 21.38 0 0 0 6.85 2.68c3.27.77 6.56 1.46 9.83 2.23a13.83 13.83 0 0 1 2.33.79 3.51 3.51 0 0 1 2.38 3.6c-.91 1.9-1.24 2.29-2.42 2.89-3.1 1.58-8.79 1.2-10.66-2.7-.38-.79-.22-1.79-.89-2.45h-12.11c-.13.01-.26.14-.53.29zm-120.8 45.44c2 1.16 3.8 2.31 4.75 4.46A9.26 9.26 0 0 1 228 335a13.89 13.89 0 0 1-9.18 6.24c-1.82.37-3.66.68-5.48 1.06-.27.06-.5.31-1.12.7a50.39 50.39 0 0 0 7.58-.4 7.73 7.73 0 0 0 3.2-.94c1.39-.87 2.76-1.76 4.14-2.65l1.84-1.2c.52 1.14 0 2-.21 3a21.43 21.43 0 0 1-3 7.4c-1.53 2.29-3.8 3.77-7.36 2.53-1.05-.37-2.06-.86-3.12-1.23a4.08 4.08 0 0 0-1.17-.07 1.74 1.74 0 0 0-.13 2 3.81 3.81 0 0 0 3.01 2.16 28.72 28.72 0 0 0 3.57.22 6.81 6.81 0 0 0 5.72-2.44c.54-1 1.38-2.58 2.23-4.15.15-.28.2-.74.76-.6 0 1.5-.11 3 0 4.48s-.54 3.05-.21 4.58a2.66 2.66 0 0 0 2.39-.14l.09-8.32a3.53 3.53 0 0 1 1.35 1.91 11.9 11.9 0 0 0 2.55 3.38 3.78 3.78 0 0 0 1.94 1 18 18 0 0 0 5.8.11 4.87 4.87 0 0 0 1.48-.49 4.06 4.06 0 0 0 1.95-2.06c.06-.69.21-1.38-.57-1.8a5.27 5.27 0 0 0-2.5.84 9.06 9.06 0 0 1-5.34.83 6.37 6.37 0 0 1-3.49-2.82 14 14 0 0 1-1.76-3.35q-.93-3-1.76-6a.71.71 0 0 1 .39-1c1 .68 2 1.38 3 2.12a13.26 13.26 0 0 0 7 2.77c1.79.12 3.57.19 5.36.27a4.17 4.17 0 0 0 .81-.13c-.16-.57-.58-.56-.91-.63q-2.95-.63-5.9-1.23c-3.91-.79-6.67-3.16-8.81-6.39a3.45 3.45 0 0 1-.31-.95c1.79-2.51 3.13-3.61 5-4.12a7.35 7.35 0 0 1 .45.72c.78 1.61 1.52 3.24 2.32 4.84a5.76 5.76 0 0 0 .78 1c6.59-2.52 13.08-5 19.51-7 3.1.77 6 1.58 8.88 2.2 3.78.8 7.6 1.46 11.41 2.15 2.12.39 4.25.71 6.38 1.07a42.63 42.63 0 0 0 6 .74 43.38 43.38 0 0 0 8-.48 18.55 18.55 0 0 0 6.37-2 6.3 6.3 0 0 0 3.14-3.64v-2.68a6.38 6.38 0 0 0-2.8-5.33 11.52 11.52 0 0 0-6.45-2.31 55.36 55.36 0 0 0-11.59.36c-3.31.54-6.61 1.14-9.87 1.9q-8.81 2-17.41 4.86a6.18 6.18 0 0 1-3.7.12 39.21 39.21 0 0 0-10.79-1.49c-1 0-2.06.35-3.09.35a19.54 19.54 0 0 0-5 1l-1.19.3c-3.2-5-3.56-5.36-7.11-7.38h-1.67a16.57 16.57 0 0 0-7 7.46c-.46-.15-.81-.27-1.15-.37a30.65 30.65 0 0 0-9.23-1.33c-1.11 0-2.21.33-3.31.35a26.76 26.76 0 0 0-6.57 1.19 5 5 0 0 1-3.06-.05c-2.48-.81-5-1.52-7.49-2.24a155.94 155.94 0 0 0-18.45-4.36 47.8 47.8 0 0 0-5.09-.66c-2.38-.11-4.77 0-7.15 0a13.64 13.64 0 0 0-5.44 1.12c-2.38 1-4.26 2.53-4.85 5.18a16 16 0 0 0-.2 3.11 4.49 4.49 0 0 0 1.51 3.38 9.18 9.18 0 0 0 3.85 2.21 32 32 0 0 0 9 1.46 33.43 33.43 0 0 0 6.91-.36c2.55-.51 5.15-.77 7.72-1.18 2.28-.36 4.55-.75 6.81-1.2q4.5-.9 9-1.94c1.88-.44 3.74-1 5.69-1.53l19.39 7c1.39-1.95 2.04-4.38 3.56-6.7zM229.36 91a37.55 37.55 0 0 0-.12 4.63v4.6a21.78 21.78 0 0 1-2.13-3.4 7.23 7.23 0 0 0-3.61-3.57L222 93a10.12 10.12 0 0 0-5.51.31 4 4 0 0 0-2.65 2.54 1.28 1.28 0 0 0 .22 1.46c1.09.16 1.09.14 1.69-.12 1-.45 2-.93 3.1-1.28a5.19 5.19 0 0 1 5.91 1.51A13.74 13.74 0 0 1 226 99a24.66 24.66 0 0 1 3.19 8.3 2.52 2.52 0 0 1-.19 1.7c-1.41-1-2.66-1.91-4-2.77a11.93 11.93 0 0 0-4.24-1.94 27.58 27.58 0 0 0-8-.19l6.51 1.45c4.29 1 7.22 3.65 9.48 7.26-.52 1.62-1.86 2.39-3 3.34a3.47 3.47 0 0 1-2.16 1.06c-.9-1.79-1.76-3.52-2.64-5.24a13.43 13.43 0 0 0-.86-1.28c-2.35.87-4.57 1.74-6.81 2.53-3.87 1.36-7.74 2.71-11.63 4a4.31 4.31 0 0 1-2.18.06c-2.61-.58-5.18-1.36-7.8-1.9-3.71-.77-7.44-1.41-11.17-2.07-2.19-.39-4.4-.69-6.6-1.06a39.15 39.15 0 0 0-7.08-.77 49.46 49.46 0 0 0-5.34.36 28.65 28.65 0 0 0-5.24 1 13.9 13.9 0 0 0-2.88 1.18 5.37 5.37 0 0 0-3 3.93 11 11 0 0 0 0 2.91 6.61 6.61 0 0 0 3.32 5 12.88 12.88 0 0 0 1.4.71c3.17 1.31 6.53 1.36 9.88 1.45.66 0 1.32-.3 2-.3a50.69 50.69 0 0 0 7.75-.9 108.08 108.08 0 0 0 12.18-2.7c4-1.12 8-2.25 12-3.46a5.4 5.4 0 0 1 3.27 0 43.53 43.53 0 0 0 8.33 1.45 27 27 0 0 0 9.94-1.1l1.83-.5c1.13 1.56 2.06 3.1 3.23 4.43a9.6 9.6 0 0 0 4.34 2.95l1.4-.22a2.83 2.83 0 0 0 .42-.14c3.09-2 3.09-2 6.53-7l1.87.5a28.58 28.58 0 0 0 14.78.35c1.31-.28 2.6-.66 3.92-.86a7.84 7.84 0 0 1 2.43 0 20.56 20.56 0 0 1 2.35.71c3.72 1.08 7.43 2.18 11.15 3.22 4.08 1.14 8.26 1.88 12.42 2.67a43.76 43.76 0 0 0 4.66.54 30.06 30.06 0 0 1 3.78.32 11.17 11.17 0 0 0 2.89 0c.74 0 1.47-.22 2.21-.25a12.33 12.33 0 0 0 6-1.75 6.36 6.36 0 0 0 3.45-5.86v-2.58a6.51 6.51 0 0 0-3.82-4c-3.25-1.51-6.74-1.79-10.22-2.05a37.23 37.23 0 0 0-9.77.77c-3.35.64-6.77 1-10.13 1.57-4.9.9-9.77 2-14.57 3.28a5.12 5.12 0 0 1-3.27-.06c-5.61-2-11.23-4-16.85-6-.4-.14-.81-.24-1.2-.35-1.5 2.13-2.09 4.58-3.5 6.58a11.06 11.06 0 0 1-5-4.41 14.74 14.74 0 0 1 7.88-6.9 20.48 20.48 0 0 1 2.81-.71c1.72-.39 3.44-.76 5.16-1.14a43.36 43.36 0 0 0-5-.22 10.7 10.7 0 0 0-6 1.62c-1.26.79-2.47 1.67-3.72 2.48-.52.33-.95.93-1.77.83a4.43 4.43 0 0 1 0-1.16c.59-2 1.13-4 1.88-5.95a18.1 18.1 0 0 1 2.07-3.7 5.38 5.38 0 0 1 6.48-2.2 22.69 22.69 0 0 1 2.28.92 4.72 4.72 0 0 0 2.2.66 1.4 1.4 0 0 0 .48-1.72 3.46 3.46 0 0 0-.92-1.48 7 7 0 0 0-4.14-1.47 17.17 17.17 0 0 0-5 .64 25.05 25.05 0 0 0-1.83 1.75 19.59 19.59 0 0 0-1.57 2.17 10 10 0 0 1-1.53 2.45c0-1-.06-1.76-.07-2.48v-5.6a2.06 2.06 0 0 0-.28-.65zm-42.41 206.11c0-.7.06-1.43.06-2.16v-17.24a17.74 17.74 0 0 1 .09-2.46 8.92 8.92 0 0 1 3.91-6.49 11.62 11.62 0 0 1 8.81-1.55c.8.14 1.58.31 2.45.48a5.07 5.07 0 0 0 .22-1v-10.75a3.1 3.1 0 0 0-.27-.84 19.92 19.92 0 0 0-6.52 0 11.86 11.86 0 0 0-7.94 5.34c-.25.39-.34 1-1.1.94-.27-1.9.14-3.84-.26-5.82a42.63 42.63 0 0 0-4.33-.08h-4.48a36.06 36.06 0 0 0-4.29.09c0 .64-.1 1.14-.1 1.65v38.74a10.9 10.9 0 0 0 .13 1.21 91.93 91.93 0 0 0 13.62-.06z"/><path class="cls-5" d="M110.93 230.09c-.35-1.54-.46-10.26-.27-22.79 0-.58.1-1.15.17-1.81l4.25-.18c.25-2 .28-35.65 0-37.86-1.31-.51-2.76 0-4.24-.36a7.54 7.54 0 0 1-.21-1.25v-20.62a10.13 10.13 0 0 1 .15-1.18 13.43 13.43 0 0 1 1.36-.14c4.78 0 9.56-.08 14.34 0a45 45 0 0 1 10.66 1.2 25 25 0 0 1 3.19 1 9.91 9.91 0 0 1 5.7 6 19.62 19.62 0 0 1 1.26 6.79v15a15.46 15.46 0 0 1-.76 4.62 8.77 8.77 0 0 1-5 5.45c-.65.31-1.33.58-2.3 1a12.15 12.15 0 0 0 1.27.45 5.56 5.56 0 0 1 4.54 4.65 35.28 35.28 0 0 1 .7 6.67c.07 1.86 0 3.74 0 5.6a3.74 3.74 0 0 0 .93 2.88l1.34.07a2.06 2.06 0 0 0 1-1.69c.12-1.41.21-2.82.3-4.24 0-.73.07-1.46.1-2.32a22.42 22.42 0 0 1 4.61.12 5.56 5.56 0 0 1 .23 1.08c0 5.83.13 11.65.06 17.48a28.92 28.92 0 0 1-1.34 8.15 19.66 19.66 0 0 1-.79 2.09c-2.46 5.63-9.1 6.31-12.91 4.11a8.07 8.07 0 0 1-3.16-3.39 13.94 13.94 0 0 1-1.59-5.79c-.11-2.39-.17-4.78-.14-7.17 0-3.28.12-6.57.27-9.85a39.33 39.33 0 0 0 0-7.14c0-.3 0-.6-.1-.89-.42-2.69-1.79-4-4.48-4.09h-2.39a92.65 92.65 0 0 0-.05 13.55l3.15.17c.06.54.15 1 .15 1.4q.16 11.31.3 22.62a1.82 1.82 0 0 1-.22.6c-1.94.33-18.35.31-20.08.01zM133.52 168a8.71 8.71 0 0 0-5.9-.73 98.92 98.92 0 0 0 .06 13.41c1.94-.06 4 .53 5.69-.77 1.42-2.84 1.49-8.86.15-11.91z"/><path class="cls-6" d="M337.65 187c1.49 1.82 1.76 4 1.91 6.25 0 0-.06.1 0 .15a1.75 1.75 0 0 0 .11.26q.07 4 .15 8.06c0 .6 0 1.2.09 1.79a2.21 2.21 0 0 0 1.26 1.88l1.12-.21a6.6 6.6 0 0 0 1-3.92c.08-1.33 0-2.67 0-4.07a13.08 13.08 0 0 1 4.77-.07 7.36 7.36 0 0 1 .16.92c.14 3.13.33 6.26.37 9.39a71.87 71.87 0 0 1-.87 13.16 23.21 23.21 0 0 1-1.51 5.14 9.12 9.12 0 0 1-12.79 4.38 7.1 7.1 0 0 1-2.71-2.6 15.29 15.29 0 0 1-2.18-7.67c-.1-3.36 0-6.72 0-10.08s.27-7 .3-10.51a21 21 0 0 0-.43-4.22 3.59 3.59 0 0 0-3.51-3.2 31 31 0 0 0-3.19 0 3.41 3.41 0 0 0-.22.83v12.45a11.45 11.45 0 0 0 1.25.25c.66.06 1.32.06 2.08.1a66.42 66.42 0 0 1 .27 8.3c0 2.69.14 5.37.17 8.06s0 5.5 0 8.35a44.39 44.39 0 0 1-6.78.19h-6.72c-2.24 0-4.46.1-6.82-.1a8.63 8.63 0 0 1-.21-1.31v-22.19c0-.36.05-.73.09-1.17 1.39-.5 2.83 0 4.33-.36.26-2.52.08-5 .12-7.55s0-5.08 0-7.62V175v-7.67c-1.42-.54-2.86 0-4.34-.4a5.49 5.49 0 0 1-.19-1v-20.84a8.3 8.3 0 0 1 .13-1 8 8 0 0 1 1.28-.21c5.6 0 11.21-.11 16.81 0a34.11 34.11 0 0 1 10.34 1.68 10.88 10.88 0 0 1 7.24 7.63 20.31 20.31 0 0 1 .85 5.74v14.79a17.92 17.92 0 0 1-.46 3.77 8.26 8.26 0 0 1-3.45 5.31l-.5.36-.84.48a.73.73 0 0 0-.9.42c-.38-.08-.72 0-.92.36h-.06l-1.06.3-.6.46 3.93.75h.06l.49.34a.59.59 0 0 0 .58.73zm-10.24-19.3a10.18 10.18 0 0 0-5.8-.5 2.22 2.22 0 0 0-.18.53v12.07a2.65 2.65 0 0 0 .22.75c4 .32 4.51.22 6.15-1.26a24.35 24.35 0 0 0 .57-8.63 5.31 5.31 0 0 0-.95-3z"/><path class="cls-7" d="M286.88 179.49v-11.9c-1.19-.6-2.32-.32-3.41-.34a11.62 11.62 0 0 0-3.16.13 5.31 5.31 0 0 0-.2.87c-.17 2.94 0 12.17.2 13.75a8.29 8.29 0 0 0 1.23.18h7.4c.58 0 1.16.07 1.72.1a55.44 55.44 0 0 1 0 9.55 30.93 30.93 0 0 1-5.09.14h-5.17a3.72 3.72 0 0 0-.3.93v11.65a3 3 0 0 0 .23.74c2.06.11 4.13 0 6.34 0a12.75 12.75 0 0 0 .16-1.37v-7.17c0-.58.08-1.17.11-1.72a64 64 0 0 1 11.96-.03 1.92 1.92 0 0 1 .21.6v34.19c-.61.7-1.33.47-2 .48h-33.46a6.62 6.62 0 0 1-.24-1.17v-22.42a11.49 11.49 0 0 1 .12-1.16c1.43-.38 2.85 0 4.24-.26a3.36 3.36 0 0 0 .17-.71v-36.54a3.33 3.33 0 0 0-.22-.76l-4.05-.16a4.69 4.69 0 0 1-.25-1v-21.07a8 8 0 0 1 .13-1 6.77 6.77 0 0 1 1.08-.18h33.17a11.19 11.19 0 0 1 1.2.16c.26 3 .1 5.88.12 8.77s0 6 0 9v17.52c-2.13.46-4.14.17-6.13.22s-3.85-.01-6.11-.02z"/><path class="cls-6" d="M234.14 144.15v22.07L213.6 206v.21a27.58 27.58 0 0 0 8.23.16 8.78 8.78 0 0 0 .17-1.23v-8.74-2.29c2-.52 3.81-.22 5.65-.26a42.76 42.76 0 0 1 5.32.08 3.34 3.34 0 0 1 .22.75v34.75a3 3 0 0 1-.23.74c-.42 0-.85.11-1.28.12-11.29.24-30.14.12-32.36-.22a3.21 3.21 0 0 1-.19-.77v-22-1.82q5.05-9.73 10.11-19.47c3.32-6.42 6.71-12.81 10.09-19.42a5.85 5.85 0 0 0-1.17-.3h-5.69a8.05 8.05 0 0 0-.27 1.35V175.09c-1.86.54-3.65.23-5.41.27a42.72 42.72 0 0 1-5.28-.07c-.4-2-.53-16.74-.29-29.69 0-.5.11-1 .16-1.5a3.25 3.25 0 0 1 .73-.2h31.16a3.86 3.86 0 0 1 .87.25z"/><path class="cls-5" d="M193 187.09v23.09a67.71 67.71 0 0 1-.44 6.92 19.18 19.18 0 0 1-2.48 7.84 11.44 11.44 0 0 1-6.31 5.1 22.56 22.56 0 0 1-15.38-.22 11.39 11.39 0 0 1-6.88-7.22 30.59 30.59 0 0 1-1.7-9c-.08-1.42-.08-2.84-.08-4.26v-44.61a49.44 49.44 0 0 1 .52-8.26 22.6 22.6 0 0 1 2.24-7 10.82 10.82 0 0 1 5.4-4.84 21.45 21.45 0 0 1 10.09-1.51 20.46 20.46 0 0 1 5.91 1.14 11.91 11.91 0 0 1 7.15 7 20.48 20.48 0 0 1 1.54 6.06c.21 2.38.41 4.77.43 7.15-.01 7.53-.01 15.08-.01 22.62zm-21.19-.88c0 4-.07 7.92 0 11.88a31.87 31.87 0 0 0 .67 5.09 3.66 3.66 0 0 0 1.7 2.53 3.76 3.76 0 0 0 5.76-2.14 20.28 20.28 0 0 0 .73-5.07q.11-12.21 0-24.42a16.62 16.62 0 0 0-.78-5.29 3.21 3.21 0 0 0-2.1-2.15 3.91 3.91 0 0 0-5.32 2.63 5 5 0 0 0-.22.87c-.17 1.48-.44 3-.46 4.44-.05 3.87 0 7.75 0 11.63z"/><path class="cls-6" d="M91.34 179.83c0-1-.08-1.76-.09-2.5 0-1.87 0-3.74-.11-5.6a12.22 12.22 0 0 0-.25-2c-.39-1.94-1.33-3.34-4-3.37l-2.07.79a7.46 7.46 0 0 0-1.37 3.74c-.08 1.19-.22 2.38-.22 3.57V198a32.63 32.63 0 0 0 .22 3.58 9.66 9.66 0 0 0 .51 2.17 3.46 3.46 0 0 0 3.58 2.49 3.21 3.21 0 0 0 3.09-2.48 10.78 10.78 0 0 0 .53-2.85c.1-2.61.1-5.23.13-7.84v-2.51a3.41 3.41 0 0 1 .9-.29h11.21a4.44 4.44 0 0 1 .76.15 8.16 8.16 0 0 1 .19 1.25v19.51a31.18 31.18 0 0 1-1.55 10.14 13.62 13.62 0 0 1-7.5 8.47 19.07 19.07 0 0 1-9.3 1.42 18.52 18.52 0 0 1-7.74-2 11.49 11.49 0 0 1-5.06-5.51 20.86 20.86 0 0 1-1.7-6 64.55 64.55 0 0 1-.56-7.36V163.7a55.28 55.28 0 0 1 .95-10.25 16.27 16.27 0 0 1 2.39-6.23 9 9 0 0 1 5.84-3.82 10.39 10.39 0 0 1 10.52 3.42c.28.32.59.62 1 1 .56-1.27 0-2.5.48-3.75a35.58 35.58 0 0 1 5.68-.15h5.7c.74.75.49 1.54.49 2.25v31.39c0 .66 0 1.32-.07 2.09a36.22 36.22 0 0 1-6.28.2c-2.01.02-4.02-.02-6.3-.02zM367.13 230.09a69.92 69.92 0 0 1-11.44 0c0-.54-.14-1.12-.14-1.7-.19-15-.06-29.37.26-30.86a70.53 70.53 0 0 1 11.92 0 10.57 10.57 0 0 1 .15 1.22v4.26a4.48 4.48 0 0 0 .94 3 3.55 3.55 0 0 0 3.86.07 4 4 0 0 0 1.24-2.44c.8-4.47-.25-8.32-3.91-11.2-1.29-1-2.74-1.81-4.07-2.76-2-1.43-4-2.88-5.94-4.39a14.14 14.14 0 0 1-5.48-10.15c-.2-2-.35-4-.38-6-.06-4 0-7.92 0-11.88a22.13 22.13 0 0 1 .84-6 12 12 0 0 1 1.84-3.81c2.42-3.35 5.82-4.51 9.79-4.28a11 11 0 0 1 7.62 3.31 1.17 1.17 0 0 0 .37.24c.05 0 .14 0 .36-.09v-2.44a20 20 0 0 1 4.95-.22 40.41 40.41 0 0 1 4.5 0 2.8 2.8 0 0 1 .31.33.47.47 0 0 1 .05.21v29.35a4.33 4.33 0 0 1-.16.77 11.41 11.41 0 0 1-3.48.2h-7a10.68 10.68 0 0 1-.25-1.41v-2.91a6.14 6.14 0 0 0-.87-3.42 3.41 3.41 0 0 0-3.61-.37 2.61 2.61 0 0 0-1.37 1.95 23.21 23.21 0 0 0-.22 4.22 4 4 0 0 0 .81 1.8 13.08 13.08 0 0 0 3.92 3.62c2.05 1.36 4.14 2.66 6.22 4a29.63 29.63 0 0 1 5 4.15 12.93 12.93 0 0 1 3.34 5.74 25 25 0 0 1 1 6.85v17.71a20.88 20.88 0 0 1-1.3 7.46 10.14 10.14 0 0 1-8.41 6.84 13.37 13.37 0 0 1-4.68 0 9.55 9.55 0 0 1-5.16-2.5c-.3-.3-.63-.56-1.13-1zM242.24 167.32l-4.15-.16a5.31 5.31 0 0 1-.24-1.09v-20.85a6.78 6.78 0 0 1 .11-.93 2.5 2.5 0 0 1 .3-.27.46.46 0 0 1 .21-.06l18.6-.06h1.34a2 2 0 0 1 .49.21 3.17 3.17 0 0 1 .19.78v22c-1.51.66-3.06 0-4.42.47-.3 1.81-.4 33.93-.12 37.77.63.43 1.39.18 2.1.22s1.34 0 1.87 0c.77.62.56 1.34.56 2V228.61c0 .44-.06.87-.1 1.45a10 10 0 0 1-1.33.19h-18.61a9.36 9.36 0 0 1-1-.11 4.86 4.86 0 0 1-.23-1v-22.42a9.81 9.81 0 0 1 .14-1.15c1.42-.43 2.86 0 4.19-.31.32-2.12.47-28.32.21-36.78.03-.34-.05-.7-.11-1.16z"/><path class="cls-8" d="M233.1 255.58h15.24c.37.42.17.71-.11 1-2 2-3.92 4.1-5.9 6.14-2.65 2.74-5.32 5.45-8 8.18a6.35 6.35 0 0 0-.46.61l16.93 25.59a3 3 0 0 1-.77.29H234.3l-10-16.44a7.76 7.76 0 0 0-.93.63c-.87.81-1.72 1.64-2.62 2.5v13.07a16.73 16.73 0 0 1-4.54.24h-4.71a21.78 21.78 0 0 1-4.43-.16c-.23-1.7-.29-54.31-.07-57.07a2.76 2.76 0 0 1 .78-.24h12.11a3 3 0 0 1 .7.2 12.7 12.7 0 0 1 .14 3.09v22.43a16.39 16.39 0 0 0 .16 3.34c2.33-2.25 4.2-4.54 6.18-6.72s4.01-4.44 6.03-6.68zM106.39 297.15a118.44 118.44 0 0 1-15 0 6.42 6.42 0 0 1-.15-2.35v-39.23a5.43 5.43 0 0 0-.22-2.5 16.07 16.07 0 0 0-4.18-.19h-8.26a31.68 31.68 0 0 1-4.16-.09 95.13 95.13 0 0 1-.1-12.67 4.24 4.24 0 0 1 2.37-.23H122.2c.36 0 .72.07 1 .11a77.81 77.81 0 0 1 .09 12.72 16.32 16.32 0 0 1-1.67.17h-12.78c-.73 0-1.46 0-2.32.07-.25 3-.09 5.9-.12 8.79s0 6 0 9v26.4z"/><path class="cls-6" d="M149.86 255.63h13.49a4.06 4.06 0 0 1 .31 2.46V297.08c-1.57.53-3.06.22-4.53.28s-2.84 0-4.26 0h-4.47c-.6-1.55 0-3.08-.47-4.69a5.21 5.21 0 0 0-.88.64 15.1 15.1 0 0 1-8.14 4.87A18 18 0 0 1 129.1 297a11.11 11.11 0 0 1-5.62-6.14 20.45 20.45 0 0 1-1.42-6.54c-.09-1.49-.18-3-.18-4.48v-22a3.54 3.54 0 0 1 .26-2.17 98.31 98.31 0 0 1 13.38 0 3.75 3.75 0 0 1 .24 2.17v20.85a23.4 23.4 0 0 0 .25 3.57c.5 3.17 2.43 4.6 5.54 4.85a7.18 7.18 0 0 0 7.76-5.7 18.81 18.81 0 0 0 .5-4.21c.05-6.43 0-12.85 0-19.28z"/><path class="cls-9" d="M296.74 279.91c-3.34.16-6.69.05-10 .07s-6.57 0-9.86 0h-10c-.69 3.9 2.31 7.56 4.93 8.54a11 11 0 0 0 6.6.33 8.07 8.07 0 0 0 5-4 100.64 100.64 0 0 1 12.71 0 8 8 0 0 1-.22 1.46 16.88 16.88 0 0 1-8.29 9.59 24 24 0 0 1-11 2.78 29 29 0 0 1-8.65-.92c-8.08-2.28-13.1-7.47-14.83-15.69a24.29 24.29 0 0 1 .29-11.75 20.64 20.64 0 0 1 10.7-13.17 23.64 23.64 0 0 1 20.16-1c5.73 2.21 9.27 6.6 11.27 12.31a32 32 0 0 1 1.55 9.91 3.72 3.72 0 0 1-.12.89 5.42 5.42 0 0 1-.24.65zM283.13 272a8.55 8.55 0 0 0-2-5.22 7.71 7.71 0 0 0-10.05-1.86c-2.74 1.55-4 4.06-4.55 7 1.83.29 14.25.31 16.6.08z"/><path class="cls-7" d="M321 282.34c1.33-3.27 1.94-6.27 2.86-9.17s1.72-5.72 2.55-8.58 1.67-5.88 2.49-8.76a95.33 95.33 0 0 1 14.07-.09c-.15.57-.26 1.14-.45 1.68q-3.15 8.74-6.33 17.48c-2.16 6-4.31 11.93-6.49 17.88q-1.92 5.25-3.93 10.48a14.09 14.09 0 0 1-1 2 11.32 11.32 0 0 1-8.41 5.7 48.69 48.69 0 0 1-5.79.49c-2.24.08-4.48 0-6.72 0a7.38 7.38 0 0 1-.94-.13 14.11 14.11 0 0 1-.18-3.57v-7.1c.64-.62 1.34-.37 2-.41a22.54 22.54 0 0 0 4.23-.26c3-.73 4.38-2.76 3.67-5.8a38.73 38.73 0 0 0-1.45-4.71q-5.87-15.85-11.79-31.68c-.23-.62-.39-1.26-.54-1.76.1-.23.11-.31.16-.35a.34.34 0 0 1 .21-.07l12.32-.08c.51 0 1 0 1.67.08 1.49 4.32 2.63 8.72 3.91 13.08s2.48 8.76 3.88 13.65zM344.65 283.89c.27-.14.4-.27.53-.28h12.15c.66.66.51 1.66.89 2.45 1.87 3.91 7.56 4.29 10.66 2.7 1.18-.6 1.52-1 2.42-2.89a3.51 3.51 0 0 0-2.38-3.6 13.83 13.83 0 0 0-2.33-.79c-3.27-.76-6.56-1.46-9.83-2.23a21.38 21.38 0 0 1-6.85-2.68 9.51 9.51 0 0 1-4.47-6.92 16.92 16.92 0 0 1 0-4.24 10.28 10.28 0 0 1 4.81-7.48 17.56 17.56 0 0 1 5.5-2.43 35.94 35.94 0 0 1 14.44-.67 21.6 21.6 0 0 1 6.22 1.78c4.71 2.24 7 6 7.27 11.23-1.43.54-2.85.23-4.24.28s-2.69 0-4 0h-4.25l-.48-1.63a3.54 3.54 0 0 0-2.2-2.39 11.28 11.28 0 0 0-7.51-.1 5.58 5.58 0 0 0-1.38.9c-.66 2.13-.48 3 1.16 3.91a16.52 16.52 0 0 0 3.95 1.54c2.24.57 4.53.94 6.8 1.4a27 27 0 0 1 6.7 1.77c3.81 1.86 6.39 4.77 6.83 9.06a12.44 12.44 0 0 1-4.63 11.55 17.24 17.24 0 0 1-5.49 3 29.4 29.4 0 0 1-8.8 1.53 33.8 33.8 0 0 1-11.06-1.38 15.65 15.65 0 0 1-7-4.27 12.72 12.72 0 0 1-3.43-9.12z"/><path class="cls-10" d="M223.85 329.33c-1.52 2.32-2.17 4.75-3.68 6.74l-19.39-7c-2 .53-3.81 1.09-5.69 1.53q-4.47 1-9 1.94c-2.26.45-4.53.84-6.81 1.2-2.57.41-5.17.67-7.72 1.18a33.43 33.43 0 0 1-6.91.36 32 32 0 0 1-9-1.46 9.18 9.18 0 0 1-3.85-2.21 4.49 4.49 0 0 1-1.51-3.38 16 16 0 0 1 .2-3.11c.59-2.64 2.47-4.2 4.85-5.18a13.64 13.64 0 0 1 5.44-1.12c2.38 0 4.77-.07 7.15 0a47.8 47.8 0 0 1 5.09.66 155.94 155.94 0 0 1 18.45 4.36c2.51.71 5 1.43 7.49 2.24a5 5 0 0 0 3.06.05 26.76 26.76 0 0 1 6.57-1.19c1.11 0 2.21-.33 3.31-.35a30.65 30.65 0 0 1 9.23 1.33c.35.1.69.22 1.15.37a16.57 16.57 0 0 1 7-7.46H231c3.55 2 3.91 2.39 7.11 7.38l1.19-.3a19.54 19.54 0 0 1 5-1c1 0 2.06-.33 3.09-.35a39.21 39.21 0 0 1 10.79 1.49 6.18 6.18 0 0 0 3.7-.12q8.6-2.81 17.41-4.86c3.27-.76 6.56-1.36 9.87-1.9a55.36 55.36 0 0 1 11.59-.36 11.52 11.52 0 0 1 6.45 2.31 6.38 6.38 0 0 1 2.8 5.33v2.68a6.3 6.3 0 0 1-3.14 3.64 18.55 18.55 0 0 1-6.37 2 43.38 43.38 0 0 1-8 .48 42.63 42.63 0 0 1-6-.74c-2.13-.35-4.26-.68-6.38-1.07-3.81-.69-7.62-1.35-11.41-2.15-2.91-.62-5.79-1.42-8.88-2.2-6.43 2-12.92 4.45-19.51 7a5.76 5.76 0 0 1-.78-1c-.8-1.6-1.55-3.23-2.32-4.84a7.35 7.35 0 0 0-.45-.72c-1.86.5-3.19 1.6-5 4.12a3.45 3.45 0 0 0 .31.95c2.13 3.23 4.9 5.6 8.81 6.39q3 .6 5.9 1.23c.34.07.76.07.91.63a4.17 4.17 0 0 1-.81.13c-1.79-.07-3.58-.14-5.36-.27a13.26 13.26 0 0 1-7-2.77c-1-.74-2.06-1.44-3-2.12a.71.71 0 0 0-.39 1q.83 3 1.76 6a14 14 0 0 0 1.76 3.35 6.37 6.37 0 0 0 3.49 2.82 9.06 9.06 0 0 0 5.34-.83 5.27 5.27 0 0 1 2.5-.84c.78.42.63 1.11.57 1.8a4.06 4.06 0 0 1-1.95 2.06 4.87 4.87 0 0 1-1.48.49 18 18 0 0 1-5.8-.11 3.78 3.78 0 0 1-1.94-1 11.9 11.9 0 0 1-2.55-3.38 3.53 3.53 0 0 0-1.35-1.91l-.09 8.32a2.66 2.66 0 0 1-2.39.14c-.33-1.53.35-3 .21-4.58s0-3 0-4.48c-.55-.13-.6.33-.76.6-.86 1.57-1.69 3.15-2.23 4.15a6.81 6.81 0 0 1-5.72 2.44 28.72 28.72 0 0 1-3.57-.22 3.81 3.81 0 0 1-2.95-2.18 1.74 1.74 0 0 1 .13-2 4.08 4.08 0 0 1 1.17.07c1.05.37 2.06.86 3.12 1.23 3.56 1.24 5.83-.24 7.36-2.53a21.43 21.43 0 0 0 3-7.4c.2-.92.73-1.82.21-3l-1.84 1.2c-1.38.89-2.75 1.78-4.14 2.65a7.73 7.73 0 0 1-3.2.94 50.39 50.39 0 0 1-7.58.4c.61-.39.84-.65 1.12-.7 1.82-.37 3.66-.68 5.48-1.06A13.89 13.89 0 0 0 228 335a9.26 9.26 0 0 0 .56-1.19c-.91-2.17-2.69-3.32-4.71-4.48zm83.38-3.09a5.72 5.72 0 0 0-2.46-3.26 12.45 12.45 0 0 0-5.3-1.61 51.55 51.55 0 0 0-11.14.5c-2.93.49-5.82 1.15-8.73 1.74-4.95 1-9.79 2.39-14.9 3.94a7.44 7.44 0 0 0 1.32.64c3.47.79 6.95 1.57 10.43 2.3 3.27.68 6.55 1.36 9.84 1.91a24.3 24.3 0 0 0 5.08.64c1.49-.07 3 0 4.47 0a23.91 23.91 0 0 0 8.25-1.72c2.59-1.13 3.27-2.18 3.14-5.08zm-154.1 2c.9 1.74 1 1.86 2.55 2.66a20.48 20.48 0 0 0 8.4 2c1.86.13 3.73 0 5.6 0a10.22 10.22 0 0 0 1.78-.16q3.62-.68 7.23-1.41 8-1.62 16-3.28c.29-.06.53-.35.91-.62-.61-.23-1-.42-1.44-.54-5-1.38-10-2.8-15.13-3.84q-3.06-.62-6.15-1.1c-1.91-.29-3.83-.57-5.75-.7-1.64-.12-3.29 0-4.93 0a15.22 15.22 0 0 0-5.23 1.05 5.45 5.45 0 0 0-3.84 5.97zm86 .35a15.9 15.9 0 0 0 2.17 4.83c2.43-.91 4.85-1.67 7.14-2.7s4.78-1.5 7.22-2.89c-2.2-.37-4.08-.84-6-1a25.11 25.11 0 0 0-8 .48c-.89.27-2 .21-2.56 1.31zm-17.72-.17a4.37 4.37 0 0 0-.9-.6 23.94 23.94 0 0 0-5.68-1 35.19 35.19 0 0 0-9.72 1 123.06 123.06 0 0 0 14.13 5.55 16.75 16.75 0 0 0 2.14-4.92zm9.75-6.34v8c0 .11.13.23.28.47 1.53-.89 2.71-2.23 4.14-3.09a2.72 2.72 0 0 0-.69-2.37 8.15 8.15 0 0 0-3.76-2.98zm-1.8 8.71v-7.6a3.16 3.16 0 0 0-.35-1 8.37 8.37 0 0 0-3.55 3.14 2.25 2.25 0 0 0-.54 2.11z"/><path class="cls-11" d="M229.36 91h1.81a2.06 2.06 0 0 1 .28.65v5.6c0 .72 0 1.44.07 2.48a10 10 0 0 0 1.53-2.45 19.59 19.59 0 0 1 1.57-2.17 25.05 25.05 0 0 1 1.83-1.75 17.17 17.17 0 0 1 5-.64 7 7 0 0 1 4.14 1.47 3.46 3.46 0 0 1 .92 1.48 1.4 1.4 0 0 1-.48 1.72 4.72 4.72 0 0 1-2.2-.66 22.69 22.69 0 0 0-2.28-.92 5.38 5.38 0 0 0-6.48 2.2 18.1 18.1 0 0 0-2.07 3.7c-.76 1.93-1.29 4-1.88 5.95a4.43 4.43 0 0 0 0 1.16c.83.11 1.25-.49 1.77-.83 1.26-.8 2.46-1.68 3.72-2.48a10.7 10.7 0 0 1 6-1.62 43.36 43.36 0 0 1 5 .22c-1.72.38-3.44.75-5.16 1.14a20.48 20.48 0 0 0-2.81.71 14.74 14.74 0 0 0-7.88 6.9 11.06 11.06 0 0 0 5 4.41c1.4-2 2-4.45 3.5-6.58.39.11.8.21 1.2.35 5.62 2 11.24 4 16.85 6a5.12 5.12 0 0 0 3.27.06c4.8-1.32 9.67-2.37 14.57-3.28 3.36-.62 6.77-.94 10.13-1.57a37.23 37.23 0 0 1 9.77-.77c3.48.26 7 .54 10.22 2.05a6.51 6.51 0 0 1 3.82 4v2.58a6.36 6.36 0 0 1-3.45 5.86 12.33 12.33 0 0 1-6 1.75c-.74 0-1.47.2-2.21.25a11.17 11.17 0 0 1-2.89 0 30.06 30.06 0 0 0-3.78-.32 43.76 43.76 0 0 1-4.66-.54c-4.16-.79-8.33-1.53-12.42-2.67-3.73-1-7.44-2.14-11.15-3.22a20.56 20.56 0 0 0-2.35-.71 7.84 7.84 0 0 0-2.43 0c-1.32.2-2.61.58-3.92.86a28.58 28.58 0 0 1-14.78-.35l-1.87-.5c-3.44 5-3.44 5-6.53 7a2.9 2.9 0 0 1-.42.14l-1.4.22a9.6 9.6 0 0 1-4.33-2.88c-1.18-1.32-2.11-2.86-3.23-4.43l-1.83.5a27 27 0 0 1-9.94 1.1 43.53 43.53 0 0 1-8.33-1.45 5.4 5.4 0 0 0-3.27 0c-4 1.21-8 2.34-12 3.46a108.08 108.08 0 0 1-12.18 2.7 50.69 50.69 0 0 1-7.75.9c-.66 0-1.32.32-2 .3-3.35-.09-6.71-.14-9.88-1.45a12.88 12.88 0 0 1-1.4-.71 6.61 6.61 0 0 1-3.32-5 11 11 0 0 1 0-2.91 5.37 5.37 0 0 1 3-3.93 13.9 13.9 0 0 1 2.88-1.18 28.65 28.65 0 0 1 5.24-1 49.46 49.46 0 0 1 5.34-.36 39.15 39.15 0 0 1 7.08.77c2.2.37 4.41.67 6.6 1.06 3.73.66 7.46 1.31 11.17 2.07 2.62.54 5.19 1.32 7.8 1.9a4.31 4.31 0 0 0 2.18-.06c3.89-1.28 7.77-2.63 11.63-4 2.25-.79 4.47-1.66 6.81-2.53a13.43 13.43 0 0 1 .9 1.25c.89 1.72 1.75 3.46 2.64 5.24a3.47 3.47 0 0 0 2.16-1.06c1.12-.95 2.46-1.72 3-3.34-2.25-3.61-5.19-6.3-9.48-7.26l-6.51-1.45a27.58 27.58 0 0 1 8 .19 11.93 11.93 0 0 1 4.24 1.94c1.3.86 2.55 1.78 4 2.77a2.52 2.52 0 0 0 .16-1.76A24.66 24.66 0 0 0 226 99a13.74 13.74 0 0 0-1.23-1.59 5.19 5.19 0 0 0-5.91-1.51c-1.06.35-2.08.83-3.1 1.28-.6.26-.6.28-1.69.12a1.28 1.28 0 0 1-.22-1.46 4 4 0 0 1 2.65-2.54 10.12 10.12 0 0 1 5.5-.3l1.48.32a7.23 7.23 0 0 1 3.61 3.57 21.78 21.78 0 0 0 2.13 3.4v-4.6a37.55 37.55 0 0 1 .14-4.69zm35.94 27.9v.43c.54.2 1.07.45 1.63.61 5.71 1.63 11.42 3.18 17.28 4.25a68.84 68.84 0 0 0 13.5 1.33 17.76 17.76 0 0 0 4.41-.56c2-.56 3.93-1.41 4.82-3.6a6.09 6.09 0 0 0 .29-3.17 5.35 5.35 0 0 0-2.85-2.57 15.61 15.61 0 0 0-2.52-.88 26.89 26.89 0 0 0-7.49-1 42.68 42.68 0 0 0-5.13.17c-3.88.6-7.74 1.36-11.59 2.13s-7.42 1.58-11.13 2.39a9.43 9.43 0 0 0-1.22.47zM154.6 123a11.1 11.1 0 0 0 6.68 2.43 56.65 56.65 0 0 0 13.78-1c3.43-.6 6.83-1.43 10.21-2.27 2.89-.71 5.74-1.56 8.6-2.39.44-.13 1.08-.11 1.22-.9a4 4 0 0 0-.73-.34c-4.63-1.13-9.27-2.21-14-3-2-.33-4-.63-5.92-1.06a28.23 28.23 0 0 0-6.63-.76 31.9 31.9 0 0 0-7.34.5 35.71 35.71 0 0 0-4.47 1.38 4.68 4.68 0 0 0-2.91 2.9 5.73 5.73 0 0 0 1.51 4.51zm50.53-4.14a26.43 26.43 0 0 0 10.6 1c1.85-.15 3.87-.16 5.46-1.4a9.21 9.21 0 0 0-2.08-5.05c-3.54 1.06-12.49 4.51-13.98 5.47zm33.85-.61c1.66 1.45 3.62 1.31 5.37 1.63 3.17.57 9-.2 11.13-1.26l-14.21-5.29c-1.14 1.52-1.48 3.21-2.27 4.94zm-3.36 1.25a16.52 16.52 0 0 0-4.33-3.21 38.15 38.15 0 0 0 0 8.34 6.91 6.91 0 0 0 4.33-5.12zm-10.75-.17a2.71 2.71 0 0 0 .87 2.52 8.6 8.6 0 0 0 3.41 2.91 15.15 15.15 0 0 0 .14-3v-2.69c0-.9.22-1.87-.27-2.81z"/><path class="cls-6" d="M186.95 297.11a91.93 91.93 0 0 1-13.64.13 10.9 10.9 0 0 1-.13-1.21v-38.74c0-.51.06-1 .1-1.65a36.06 36.06 0 0 1 4.29-.09h4.48a42.63 42.63 0 0 1 4.33.08c.4 2 0 3.93.26 5.82.76.09.85-.55 1.1-.94a11.86 11.86 0 0 1 7.94-5.34 19.92 19.92 0 0 1 6.52 0 3.1 3.1 0 0 1 .27.84v10.75a5.07 5.07 0 0 1-.22 1c-.86-.17-1.65-.34-2.45-.48a11.62 11.62 0 0 0-8.81 1.55 8.92 8.92 0 0 0-3.91 6.49 17.74 17.74 0 0 0-.09 2.46v17.24c.01.66.01 1.39-.04 2.09z"/><path class="cls-12" d="M348.27 142.93l.28-2.25a1.71 1.71 0 0 0 .28-2l.21-2.07a2.76 2.76 0 0 0 .29-2.37l.15-1.67a1.88 1.88 0 0 0 .33-1.9l.09-.79a1.23 1.23 0 0 0 .27-1.52l.39-2.46.17-.6.1-.8c.32-.26.54-.53.12-.89l2.42-12.5c0-.06.11-.09.16-.14a34.71 34.71 0 0 1 9.37 4 3.19 3.19 0 0 1-.3 1.93c-1.33 3.73-2.68 7.45-4 11.18s-2.49 7.35-3.8 11c-1.06 3-2.21 5.87-3.34 8.79-.46 1.18-1 2.34-1.45 3.52l-.15.35-1.06 2.72a.81.81 0 0 0-.53 1.12l-1 2.57-.76-.07.25-2.17a.86.86 0 0 0 .14-1.35l.22-1.68a1.72 1.72 0 0 0 .27-2.11l.26-2a1.66 1.66 0 0 0 .19-2l.28-2a1.38 1.38 0 0 0 .15-1.84z"/><path class="cls-13" d="M336.37 186l-3.93-.75.6-.46 1 .22c.8.28 1.73.26 2.33.99zM346.48 158.11l.76.07a1.93 1.93 0 0 1-.79 1.63 1.91 1.91 0 0 1 .03-1.7zM347.81 146.76a1.66 1.66 0 0 1-.19 2 2.06 2.06 0 0 1 .19-2zM348.27 142.93a1.38 1.38 0 0 1-.18 1.79 1.66 1.66 0 0 1 .18-1.79zM348.83 138.72a1.71 1.71 0 0 1-.28 2 1.66 1.66 0 0 1 .28-2zM349.32 134.27a2.76 2.76 0 0 1-.29 2.37 2.52 2.52 0 0 1 .29-2.37zM347.36 150.79a1.72 1.72 0 0 1-.27 2.11 2.11 2.11 0 0 1 .27-2.11zM346.87 154.59a.86.86 0 0 1-.14 1.35 1 1 0 0 1 .14-1.35zM349.81 130.71a1.88 1.88 0 0 1-.33 1.9 1.74 1.74 0 0 1 .33-1.9zM350.16 128.4a1.23 1.23 0 0 1-.27 1.52 1.23 1.23 0 0 1 .27-1.52zM348.27 155.6a.81.81 0 0 1 .53-1.12.91.91 0 0 1-.53 1.12zM350.94 123.64c.42.36.2.63-.12.89a.58.58 0 0 1 .12-.89z"/><path class="cls-1" d="M334 185.05l-1-.22 1.06-.3zM336 183.71l.84-.48a.63.63 0 0 1-.84.48zM335.1 184.13a.73.73 0 0 1 .9-.42.71.71 0 0 1-.9.42zM334.16 184.5c.2-.4.54-.43.92-.36a.71.71 0 0 1-.92.36z"/><path class="cls-13" d="M337.65 187a.59.59 0 0 1-.71-.54.57.57 0 0 1 .71.54zM336.92 186.41l-.49-.34zM339.63 193.62a1.75 1.75 0 0 1-.11-.26v-.15a3.35 3.35 0 0 1 .2.29 1 1 0 0 1-.09.12zM349.86 151.76l.15-.35a1.88 1.88 0 0 1 0 .3s-.09.04-.15.05zM350.72 125.34l-.17.6c-.2-.28-.07-.46.17-.6z"/><path class="cls-1" d="M336.88 183.22l.5-.36z"/><path class="cls-14" d="M133.52 168c1.34 3.1 1.26 9.12-.15 11.91-1.73 1.3-3.75.71-5.69.77a98.92 98.92 0 0 1-.06-13.41 8.71 8.71 0 0 1 5.9.73z"/><path class="cls-15" d="M327.42 167.66a5.31 5.31 0 0 1 1 3 24.35 24.35 0 0 1-.57 8.63c-1.64 1.47-2.15 1.58-6.15 1.26a2.65 2.65 0 0 1-.22-.75v-12.07a2.22 2.22 0 0 1 .18-.53 10.18 10.18 0 0 1 5.76.46z"/><path class="cls-16" d="M171.79 186.21v-11.65c0-1.48.29-3 .46-4.44a5 5 0 0 1 .22-.87 3.91 3.91 0 0 1 5.32-2.63 3.21 3.21 0 0 1 2.1 2.15 16.62 16.62 0 0 1 .78 5.29q.08 12.21 0 24.42a20.28 20.28 0 0 1-.73 5.07 3.76 3.76 0 0 1-5.76 2.14 3.66 3.66 0 0 1-1.7-2.53 31.87 31.87 0 0 1-.67-5.09c-.09-3.94-.02-7.9-.02-11.86z"/><path class="cls-17" d="M283.13 272c-2.35.26-14.78.24-16.59 0 .56-3 1.81-5.5 4.55-7a7.71 7.71 0 0 1 10.05 1.86 8.55 8.55 0 0 1 1.99 5.14z"/><path class="cls-18" d="M307.23 326.24c.12 2.89-.55 3.95-3.12 5a23.91 23.91 0 0 1-8.25 1.72c-1.49.08-3 0-4.47 0a24.3 24.3 0 0 1-5.08-.64c-3.3-.55-6.57-1.23-9.84-1.91-3.49-.73-7-1.51-10.43-2.3a7.44 7.44 0 0 1-1.32-.64c5.1-1.56 9.95-2.94 14.9-3.94 2.91-.59 5.81-1.25 8.73-1.74a51.55 51.55 0 0 1 11.14-.5 12.45 12.45 0 0 1 5.3 1.61 5.72 5.72 0 0 1 2.44 3.34zM153.13 328.27a5.45 5.45 0 0 1 3.8-5.89 15.22 15.22 0 0 1 5.23-1.05c1.64 0 3.29-.08 4.93 0 1.92.14 3.84.41 5.75.7s4.11.68 6.15 1.1c5.1 1 10.11 2.46 15.13 3.84.42.12.83.31 1.44.54-.38.27-.62.56-.91.62q-8 1.67-16 3.28-3.61.73-7.23 1.41a10.22 10.22 0 0 1-1.78.16c-1.87 0-3.74.1-5.6 0a20.48 20.48 0 0 1-8.4-2c-1.48-.86-1.64-.98-2.51-2.71z"/><path class="cls-17" d="M239.1 328.62c.57-1.1 1.68-1 2.54-1.26a25.11 25.11 0 0 1 8-.48c1.91.14 3.79.61 6 1-2.44 1.39-4.94 1.86-7.22 2.89s-4.71 1.8-7.14 2.7a15.9 15.9 0 0 1-2.18-4.85zM221.38 328.45a16.75 16.75 0 0 1-2.18 5 123.06 123.06 0 0 1-14.13-5.55 35.19 35.19 0 0 1 9.72-1 23.94 23.94 0 0 1 5.68 1 4.37 4.37 0 0 1 .91.55z"/><path class="cls-19" d="M231.13 322.11a8.15 8.15 0 0 1 3.74 3 2.72 2.72 0 0 1 .69 2.37c-1.43.86-2.62 2.19-4.14 3.09-.15-.24-.28-.35-.28-.47-.01-2.57-.01-5.17-.01-7.99zM229.33 330.82l-4.45-3.31a2.25 2.25 0 0 1 .54-2.11 8.37 8.37 0 0 1 3.55-3.14 3.16 3.16 0 0 1 .35 1c.02 2.35.01 4.74.01 7.56z"/><path class="cls-20" d="M265.3 118.9a9.43 9.43 0 0 1 1.2-.44c3.71-.81 7.41-1.64 11.13-2.39s7.71-1.53 11.59-2.13a42.68 42.68 0 0 1 5.13-.17 26.89 26.89 0 0 1 7.49 1 15.61 15.61 0 0 1 2.52.88 5.35 5.35 0 0 1 2.85 2.57 6.09 6.09 0 0 1-.29 3.17c-.89 2.19-2.78 3-4.82 3.6a17.76 17.76 0 0 1-4.41.56 68.84 68.84 0 0 1-13.5-1.33c-5.85-1.07-11.57-2.62-17.28-4.25-.55-.16-1.08-.4-1.63-.61zM154.6 123a5.73 5.73 0 0 1-1.48-4.46 4.68 4.68 0 0 1 2.91-2.9 35.71 35.71 0 0 1 4.47-1.38 31.9 31.9 0 0 1 7.34-.5 28.23 28.23 0 0 1 6.63.76c2 .43 3.95.73 5.92 1.06 4.7.79 9.34 1.87 14 3a4 4 0 0 1 .73.34c-.15.79-.78.77-1.22.9-2.86.83-5.71 1.68-8.6 2.39-3.38.84-6.78 1.66-10.21 2.27a56.65 56.65 0 0 1-13.78 1 11.1 11.1 0 0 1-6.71-2.48z"/><path class="cls-19" d="M205.13 118.88c1.5-1 10.44-4.4 14-5.43a9.21 9.21 0 0 1 2.08 5.05c-1.59 1.24-3.61 1.25-5.46 1.4a26.43 26.43 0 0 1-10.62-1.02zM239 118.27c.81-1.72 1.15-3.42 2.29-4.93l14.21 5.29c-2.08 1.05-8 1.83-11.13 1.26-1.77-.31-3.73-.18-5.37-1.62zM235.62 119.51a6.91 6.91 0 0 1-4.32 5.13 38.15 38.15 0 0 1 0-8.34 16.52 16.52 0 0 1 4.32 3.21zM224.87 119.34l4.14-3.1c.48.93.21 1.9.27 2.81s0 1.79 0 2.69a15.15 15.15 0 0 1-.14 3 8.6 8.6 0 0 1-3.41-2.91 2.71 2.71 0 0 1-.86-2.49z"/></svg>