<svg xmlns="http://www.w3.org/2000/svg" viewBox="0 0 256 254"><defs><style>.cls-1{fill:#9a6f43}.cls-2{fill:#020202}.cls-3{fill:#fff}</style></defs><path class="cls-1" d="M255.5 128.78c-.15.48-.27.95-.45 1.38q-7 17-13.95 34-6.8 16.59-13.58 33.19-4.09 10-8.21 19.95a2.37 2.37 0 0 1-1.42 1.52Q190.83 229.38 163.8 240q-17.32 6.78-34.63 13.61a2.63 2.63 0 0 1-2.09 0L67 230.11q-14.42-5.63-28.86-11.22a2.68 2.68 0 0 1-1.6-1.71l-10.73-26.12-16.12-39.38q-4.49-11-9-21.91a2.34 2.34 0 0 1 0-1.88q10.49-26.43 21-52.86 7.47-18.88 14.9-37.77a2.82 2.82 0 0 1 1.72-1.77q16-6.3 32.07-12.64l38.39-15.2Q118 4 127.2.35a2.22 2.22 0 0 1 1.75 0L164 14.28 208.62 32c3.09 1.23 6.18 2.47 9.28 3.67a2.15 2.15 0 0 1 1.32 1.31Q230.61 65.69 242 94.43q6.5 16.37 13 32.75c.16.52.32 1.07.5 1.6zm-206.63-82"/><path class="cls-2" d="M128.3 229.27l-4.69-1.19-62-15.9c-4.39-1.13-8.78-2.29-13.17-3.4a2.43 2.43 0 0 1-1.65-1.27q-20.46-35.37-41-70.71c-1.33-2.29-2.62-4.6-4-6.86a2 2 0 0 1 0-2.26q16.37-28.74 32.64-57.51c4-7.13 8.09-14.26 12.09-21.42a3.89 3.89 0 0 1 2.62-2q23-6.34 45.94-12.8 16.35-4.57 32.71-9.14a2.61 2.61 0 0 1 1.51.12L197.14 44c3.41 1 6.81 2 10.23 2.87a3 3 0 0 1 1.91 1.58q8.15 14.45 16.33 28.88 14.29 25.25 28.61 50.49a1.71 1.71 0 0 1 0 2q-16.12 27-32.21 54.1-7 11.79-14 23.61a2.53 2.53 0 0 1-1.67 1.27l-53.87 14.15-22.94 6.05c-.37.09-.75.16-1.23.27zm.11-200c-.67.17-1.34.33-2 .52L87.78 40.57q-18.25 5.1-36.5 10.18A2.46 2.46 0 0 0 49.73 52Q38.12 71 26.47 90q-11.5 18.82-23 37.62a1.84 1.84 0 0 0 0 2.24Q15.25 148.63 27 167.4l22.55 36.07a2.91 2.91 0 0 0 1.82 1.5q37.84 9.69 75.66 19.45a5 5 0 0 0 2.66 0c5.14-1.38 10.29-2.73 15.43-4.08q28.87-7.6 57.74-15.18a4.19 4.19 0 0 0 2.69-2q12.62-19.81 25.3-39.57 10.8-16.87 21.63-33.73a1.77 1.77 0 0 0 0-2.21c-2.19-3.49-4.3-7-6.45-10.54q-19.8-32.41-39.6-64.83a3.47 3.47 0 0 0-2.16-1.68q-35.18-9.88-70.35-19.79z"/><path class="cls-2" d="M251.15 127.24q-9.38-15.22-18.67-30.5-13.46-22-26.91-44.07a2.31 2.31 0 0 0-1.51-1.11c-1.72-.44-3.42-.94-5.12-1.42l-69.41-19.57a4 4 0 0 0-2.28 0c-5.45 1.55-10.91 3.07-16.36 4.59Q81.46 43.37 52 51.57a2.34 2.34 0 0 0-1.5 1.12c-1.67 2.79-3.38 5.56-5.07 8.33q-20.32 33.3-40.69 66.57a1.87 1.87 0 0 0 0 2.32q4.86 7.62 9.63 15.3 17.93 28.67 35.84 57.35a3.18 3.18 0 0 0 2.1 1.52c8.89 2.25 17.76 4.55 26.63 6.83l48.5 12.46c.33.09.67.14 1 .22l1.13-.28 16.93-4.47q28.15-7.41 56.31-14.8a2.82 2.82 0 0 0 1.79-1.34q10.49-16.44 21-32.86 12.72-19.88 25.47-39.74a2.28 2.28 0 0 0 .08-2.86z"/><path class="cls-1" d="M137.84 193.48c-3.41.42-6.52-.17-8.9-2.68-.48.16-.45.42-.4.6a15 15 0 0 0 1.88 5.09c1.23 1.84 2.53 2.24 4.56 1.4a5 5 0 0 1 .59-.27c.49-.13 1.09-.79 1.44 0s-.18 1.23-.79 1.6a4.93 4.93 0 0 1-6.3-1.43 6.34 6.34 0 0 0-1.2-1.58v3.57c0 .65-.1 1.17-.9 1.07s-.47-.62-.46-1.09v-4.25c-.51.89-.91 1.66-1.38 2.39a5 5 0 0 1-6.24 1.35 1.72 1.72 0 0 1-.76-.86.89.89 0 0 1 .07-1c.25-.25.57-.09.85 0l.84.35c2.33 1 3.9.47 5.09-1.75a12.77 12.77 0 0 0 1.65-5.56 11.21 11.21 0 0 1-9.69 3.08c1.51-.32 2.63-.6 3.77-.81a8.3 8.3 0 0 0 4.86-3 1.45 1.45 0 0 0-.19-2.41 8.52 8.52 0 0 1-.71-.57c-.8-.78-1.26-.67-1.75.4-1.23 2.74-1.27 2.7-4 1.68-2.27-.84-4.57-1.61-6.84-2.46a4.72 4.72 0 0 0-2.91-.07c-6.1 1.46-12.2 2.94-18.52 3a13.68 13.68 0 0 1-5.46-1c-1.28-.54-2.36-1.29-2.46-2.88-.11-1.83.36-3.35 2.09-4.26 2.59-1.36 5.38-1.13 8.13-.87a78 78 0 0 1 16.27 3.81 4.47 4.47 0 0 0 2.64.09 17.59 17.59 0 0 1 10.1 0 .85.85 0 0 0 1.23-.5 7.66 7.66 0 0 1 2.75-3.06 1.94 1.94 0 0 1 2.4 0 7.87 7.87 0 0 1 2.67 3c.32.63.67.71 1.34.51a17.89 17.89 0 0 1 10.11.08 4.11 4.11 0 0 0 2.51-.08 78.26 78.26 0 0 1 16.39-3.85 18.41 18.41 0 0 1 6.44.23 4.4 4.4 0 0 1 3.73 4.74 2.75 2.75 0 0 1-1.29 2.4c-2 1.33-4.2 1.49-6.45 1.63-3.76.23-7.39-.7-11-1.31-2.64-.44-5.25-1.08-7.85-1.73a4.33 4.33 0 0 0-2.65.1c-2.84 1-5.71 2-8.53 3.12-.87.34-1.25.18-1.58-.62s-.72-1.39-1-2.12-.69-.71-1.17-.3-1.14 1.06-1.72 1.58-.21.77 0 1.15a7.56 7.56 0 0 0 4.7 3.44c1.33.34 2.66.62 4 .91zM109 185.24a6.4 6.4 0 0 0-.73-.38 76.23 76.23 0 0 0-15.41-3.33c-2.19-.19-4.42-.22-6.4 1.06a2.79 2.79 0 0 0-1.27 2.68c.06 1 .81 1.48 1.62 1.84a9.09 9.09 0 0 0 1.6.53 20.09 20.09 0 0 0 8.6.1c3.85-.74 7.75-1.44 11.99-2.5zm38.43.07c.24.08.48.17.73.23 4.26 1 8.53 1.89 12.85 2.5a15.06 15.06 0 0 0 8.15-.92c.88-.38 1.71-.88 1.73-2a2.84 2.84 0 0 0-1.57-2.65 8 8 0 0 0-3.87-.94 43.73 43.73 0 0 0-10.63 1.46 36.71 36.71 0 0 0-7.43 2.32zm-33.25.16c2 .76 4 1.5 6 2.27s1.85.73 2.67-1.23c.37-.89.16-1.22-.73-1.45a13.35 13.35 0 0 0-7.98.41zm28.08-.16a17 17 0 0 0-8.08-.35c-1.18.26-1.42.75-.87 1.77.19.34.32.71.5 1.06s.41.55.83.4zm-14.72 1.56v-2.46c0-.73.4-2.11-.22-2.23-.85-.17-1.42 1-2 1.73a2.28 2.28 0 0 0-.23.46.61.61 0 0 0 .23.88c.63.49 1.3.99 2.18 1.63zm1.07.13c.81-1.08 2.43-1.25 2.39-2.36s-1.18-2.05-2.39-2.69zM118.64 60.49c3.54-.72 6.2.67 8.76 2.6-.33-2.65-.92-5.1-3-6.89a3 3 0 0 0-3.19-.27 4.08 4.08 0 0 1-.72.29c-.52.08-1.15.92-1.54 0s.27-1.32.9-1.67a4.93 4.93 0 0 1 6.27 1.65 11.53 11.53 0 0 0 1.31 2v-4.09c0-.4-.15-.92.54-1s.69.46.69 1v3.84c.56-.24.57-.73.76-1.08a4.61 4.61 0 0 1 5.84-2.55 2.94 2.94 0 0 1 1.46.8 1.13 1.13 0 0 1 .22 1.33c-.3.54-.75.13-1.13 0-.56-.22-1.11-.48-1.69-.67a2.76 2.76 0 0 0-3.08.81c-1.61 1.81-2.16 4.07-2.66 6.69 1.58-.89 2.7-2 4.15-2.5a8.77 8.77 0 0 1 4.59-.21c-1.1.26-2.2.54-3.31.77a7.74 7.74 0 0 0-4.64 3.31 1 1 0 0 0 .17 1.55 3.09 3.09 0 0 1 .28.28c1.76 1.77 1.8 1.76 2.9-.46 1-1.94.95-1.92 3-1.16 2.6 1 5.22 1.86 7.82 2.81a3.38 3.38 0 0 0 2.16.08 127.4 127.4 0 0 1 14.24-2.83A22.9 22.9 0 0 1 168 65a10.12 10.12 0 0 1 2 .63c1.33.57 2.36 1.34 2.41 3a4.09 4.09 0 0 1-2.33 4.15 11.56 11.56 0 0 1-6 .92c-6.15-.32-12-2-17.83-3.85a5.63 5.63 0 0 0-3.39-.13 16.71 16.71 0 0 1-9.6 0c-.83-.26-1.14 0-1.49.67a7.69 7.69 0 0 1-2.63 2.82 1.93 1.93 0 0 1-2.4 0 7.63 7.63 0 0 1-2.67-3c-.31-.64-.65-.74-1.32-.54a17.87 17.87 0 0 1-10.11-.08 4.2 4.2 0 0 0-2.52.07 83.62 83.62 0 0 1-15.74 3.8 23.65 23.65 0 0 1-5.56.11 8.44 8.44 0 0 1-3.33-1 4.07 4.07 0 0 1-1.94-4.1 3.19 3.19 0 0 1 2.28-2.87 17.13 17.13 0 0 1 8.81-.95 105.46 105.46 0 0 1 15.41 2.91 4.49 4.49 0 0 0 2.9-.11c2.84-1.06 5.7-2 8.53-3.13.74-.28 1.11-.17 1.4.54s.71 1.49 1.09 2.22c.11.22.35.6.45.57a5 5 0 0 0 2.26-1.65 1 1 0 0 0 0-1.4 7.68 7.68 0 0 0-3.87-3.12c-1.22-.31-2.57-.6-4.17-.99zm28.72 8.11c.08.42.38.43.61.5a73.63 73.63 0 0 0 14.88 3.26 11.24 11.24 0 0 0 6-.63 3 3 0 0 0 2-2.88c0-1.41-1.14-1.85-2.18-2.25a15.34 15.34 0 0 0-4.69-.84c-3.06-.17-6 .63-9 1.17a76.57 76.57 0 0 0-7.62 1.67zm-38.69.35l-.05-.34-1-.27q-6.22-1.53-12.56-2.47a15.58 15.58 0 0 0-8 .83c-.95.37-1.84.89-1.89 2.06a2.86 2.86 0 0 0 1.58 2.77 8.21 8.21 0 0 0 4 .88 45.59 45.59 0 0 0 11.61-1.74c2.11-.53 4.2-1.14 6.31-1.72zm5.5-.51a13 13 0 0 0 7 .61c2.29-.43 2.31-.48 1.31-2.6-.31-.66-.61-.94-1.37-.64-2.35.91-4.65 1.76-6.95 2.63zm27.73 0c-2.22-.84-4.45-1.63-6.64-2.54-.94-.39-1.45-.23-1.76.72a6 6 0 0 1-.37 1c-.36.7-.12 1 .6 1.19a13.83 13.83 0 0 0 8.16-.35zM127.49 67l-1.23.94c-1.69 1.28-1.71 1.46-.2 3a7.34 7.34 0 0 0 .66.63c.16.13.39.3.55.26.32-.08.22-.42.22-.66.01-1.31 0-2.6 0-4.17zm1.07 5a5.78 5.78 0 0 0 2.36-2.39c.2-.4.27-.76-.2-1a10.9 10.9 0 0 1-2.16-1.69z"/><path class="cls-3" d="M51.73 84.21v-2.76h6v19.32h-6v-.88q0-5.95-2.4-5.95-1.66 0-2 2a90 90 0 0 0-.37 11q0 9.94 2.4 9.94 2.22 0 2.22-5.52v-3.82h6.63q.35 3.86.35 7.79 0 15.22-9.17 15.22-6.24 0-7.95-4.35t-1.71-20.14q0-15.29 1.45-20.33t5.82-5q3.18-.05 4.73 3.48zM85.66 111.75q.39 4.07.39 6.94 0 11.43-5.43 11.43-5.18 0-5.18-11.89v-6.41q0-4.35-4.16-4.35h-.63v9.34h2.54v12.92H61.58v-12.89H64v-23h-2.4V81.45h10.91q6 0 8 2.57t2 10.17q0 9.24-5.6 10.58l-.81.18q4.79.81 5 4.35l.18 3.33.14 2.65q.11 2 1.13 2 1.45 0 1.45-4.78v-.78zm-14.95-9h.78q4.51 0 4.51-4.18 0-4.78-4.37-4.78h-.92zM88.57 111.43v-10.76q0-12.17 1.87-16.09t7.68-3.91q5.46 0 7.3 4.05t1.83 16v10.69q0 11-2 15.08t-7.4 4q-5.54 0-7.42-3.88t-1.86-15.18zm7.09-10.58v9q0 7 2.33 7t2.19-7.11v-9.24l-.07-2.09v-1.45q-.14-3-2.15-3-2.31-.01-2.31 6.89zM129.05 81.45v12.82l-11.74 22.58H123v-6.72h6v19.64h-18.7v-12.93l11.91-23h-5.46v5.73h-5.53V81.45zM144.26 81.45V93.8h-2.54v23h2.54v12.92h-11.67v-12.88H135v-23h-2.4V81.45zM167.12 81.45v19.32h-5.57v-7h-4.72v8.67h5.89v5h-5.89v9.41h4.72v-7h6v20h-19.78v-13.01h2.33v-23h-2.33V81.45zM195.13 111.75q.39 4.07.39 6.94 0 11.43-5.43 11.43-5.18 0-5.18-11.89v-6.41q0-4.35-4.16-4.35h-.63v9.34h2.54v12.92h-11.61v-12.89h2.4v-23h-2.4V81.45H182q6 0 8 2.57t2 10.17q0 9.24-5.61 10.58l-.81.18q4.79.81 5 4.35l.18 3.33.14 2.65q.1 2 1.13 2 1.45 0 1.45-4.78v-.78zm-14.95-9h.82q4.51 0 4.51-4.18 0-4.78-4.37-4.78h-.92zM214.89 81.45v17h-6.42l-.11-1.27q-.21-3.29-1.83-3.29-2 0-2 2.51 0 2.87 3.42 5 5.39 3.4 6.86 6.21t1.46 9.86q0 13.06-6.63 13.06-3.56 0-5.71-4.21v3.43h-6v-18.36h6v.71q0 4.78 2.5 4.78 2.33 0 2.33-3.36a6 6 0 0 0-2.64-5.27l-3.52-2.44q-5.29-3.64-5.29-12 0-13.16 6.45-13.16 3.21 0 5.08 4.21v-3.4zM50.47 168.06V140.6H40.7V135h26.17v5.59h-9.75v27.47zM83.86 168.06v-3.59a9.2 9.2 0 0 1-3.43 3A9.57 9.57 0 0 1 76 168.6a8.74 8.74 0 0 1-4.31-1.06 6.24 6.24 0 0 1-2.76-3 13.32 13.32 0 0 1-.85-5.3v-15.13h6.31v11a30.61 30.61 0 0 0 .35 6.19 3.37 3.37 0 0 0 1.27 1.8 3.89 3.89 0 0 0 2.34.67 5 5 0 0 0 2.9-.89 4.52 4.52 0 0 0 1.75-2.21 25.77 25.77 0 0 0 .47-6.46v-10.1h6.31v23.95zM102.76 168.06h-6.31v-23.95h5.86v3.4a10.22 10.22 0 0 1 2.71-3.18 5 5 0 0 1 2.73-.77 8 8 0 0 1 4.16 1.2l-2 5.53a5.53 5.53 0 0 0-3-1 3.5 3.5 0 0 0-2.25.73 5 5 0 0 0-1.45 2.65 37.8 37.8 0 0 0-.53 8zM114.86 168.06V135h6.31v17.54l7.39-8.43h7.77l-8.15 8.75 8.74 15.2h-6.81l-6-10.76-2.94 3.09v7.67zM154.94 160.44l6.29 1.06a10.35 10.35 0 0 1-3.83 5.29 11.22 11.22 0 0 1-6.55 1.81q-6.22 0-9.21-4.08a13.75 13.75 0 0 1-2.36-8.25q0-6 3.1-9.32a10.19 10.19 0 0 1 7.84-3.37 10.57 10.57 0 0 1 8.4 3.53q3.08 3.53 2.94 10.81h-15.81a6.43 6.43 0 0 0 1.53 4.39 4.77 4.77 0 0 0 3.64 1.57 3.86 3.86 0 0 0 2.49-.81 5 5 0 0 0 1.53-2.63zm.36-6.4a6.12 6.12 0 0 0-1.42-4.18 4.33 4.33 0 0 0-3.28-1.43 4.38 4.38 0 0 0-3.41 1.51 5.87 5.87 0 0 0-1.32 4.1zM164.18 144.11h6.72l5.71 17 5.57-17h6.54l-8.42 23-1.51 4.17a17 17 0 0 1-1.58 3.2 7 7 0 0 1-1.73 1.79 7.56 7.56 0 0 1-2.4 1.07 12.44 12.44 0 0 1-3.22.38 16.67 16.67 0 0 1-3.57-.38l-.56-5a13.94 13.94 0 0 0 2.67.29 4 4 0 0 0 3.26-1.3 9 9 0 0 0 1.62-3.3zM191 161.23l6.33-1a4.66 4.66 0 0 0 1.64 2.81 5.52 5.52 0 0 0 3.46 1 6.23 6.23 0 0 0 3.68-.9 2 2 0 0 0 .83-1.69 1.67 1.67 0 0 0-.45-1.2 5 5 0 0 0-2.11-.83q-7.64-1.69-9.68-3.09a6.17 6.17 0 0 1-2.83-5.39 6.65 6.65 0 0 1 2.45-5.23q2.45-2.12 7.59-2.12 4.9 0 7.28 1.6a8.19 8.19 0 0 1 3.28 4.74l-6 1.11a3.7 3.7 0 0 0-1.45-2.14 5.28 5.28 0 0 0-3-.74 6.84 6.84 0 0 0-3.57.7 1.5 1.5 0 0 0-.72 1.29 1.4 1.4 0 0 0 .63 1.15q.85.63 5.9 1.78t7 2.82a5.87 5.87 0 0 1 2 4.71 7.25 7.25 0 0 1-2.74 5.66q-2.74 2.37-8.11 2.37a13.26 13.26 0 0 1-7.72-2 9.14 9.14 0 0 1-3.69-5.41zM201.46 63.52a.88.88 0 0 1 .57 1.31c-2.42 6.56-4.5 13.24-7.24 19.67a1.58 1.58 0 0 1-.38.59c-.16.15 0 .55-.39.49s-.15-.47-.29-.65c.54-2.7.78-5.4 1-8.09.47-4.66 1.42-9.23 2.18-13.84.2-1.18.62-1.21 1.53-.75s2.02.86 3.02 1.27z"/></svg>